<svg width="429" height="711" version="1.1" xmlns="http://www.w3.org/2000/svg" desc="Created with imagetracer.js version 1.2.6" ><path fill="rgb(81,62,79)" stroke="rgb(81,62,79)" stroke-width="1" opacity="0.1450980392156863" d="M 233.5 5 L 237 6.5 L 235.5 7 L 233.5 5 Z " /><path fill="rgb(81,62,79)" stroke="rgb(81,62,79)" stroke-width="1" opacity="0.1450980392156863" d="M 180.5 6 L 179.5 8 L 175.5 10 L 176.5 8 L 180.5 6 Z " /><path fill="rgb(81,62,79)" stroke="rgb(81,62,79)" stroke-width="1" opacity="0.1450980392156863" d="M 240.5 8 L 241.5 10 L 240.5 8 Z " /><path fill="rgb(81,62,79)" stroke="rgb(81,62,79)" stroke-width="1" opacity="0.1450980392156863" d="M 173.5 10 L 172.5 12 L 169.5 14 L 171.5 11 L 173.5 10 Z " /><path fill="rgb(81,62,79)" stroke="rgb(81,62,79)" stroke-width="1" opacity="0.1450980392156863" d="M 243.5 10 L 248 13.5 L 245.5 12 L 243.5 10 Z " /><path fill="rgb(81,62,79)" stroke="rgb(81,62,79)" stroke-width="1" opacity="0.1450980392156863" d="M 167.5 14 L 158 24.5 L 155.5 28 L 157 25.5 L 167.5 14 Z " /><path fill="rgb(81,62,79)" stroke="rgb(81,62,79)" stroke-width="1" opacity="0.1450980392156863" d="M 249.5 14 L 262 27.5 L 259 25.5 L 249.5 14 Z " /><path fill="rgb(81,62,79)" stroke="rgb(81,62,79)" stroke-width="1" opacity="0.1450980392156863" d="M 200.5 20 L 207 20.5 L 200.5 21 L 200.5 20 Z " /><path fill="rgb(81,62,79)" stroke="rgb(81,62,79)" stroke-width="1" opacity="0.1450980392156863" d="M 211.5 20 L 216 20.5 L 211.5 21 L 211.5 20 Z " /><path fill="rgb(81,62,79)" stroke="rgb(81,62,79)" stroke-width="1" opacity="0.1450980392156863" d="M 196.5 21 L 199 21.5 L 196.5 22 L 196.5 21 Z " /><path fill="rgb(81,62,79)" stroke="rgb(81,62,79)" stroke-width="1" opacity="0.1450980392156863" d="M 218.5 21 L 221 21.5 L 218.5 22 L 218.5 21 Z " /><path fill="rgb(81,62,79)" stroke="rgb(81,62,79)" stroke-width="1" opacity="0.1450980392156863" d="M 188.5 24 L 190 24.5 L 187.5 26 L 188.5 24 Z " /><path fill="rgb(81,62,79)" stroke="rgb(81,62,79)" stroke-width="1" opacity="0.1450980392156863" d="M 227.5 24 L 230 25.5 L 228.5 25 L 227.5 24 Z " /><path fill="rgb(81,62,79)" stroke="rgb(81,62,79)" stroke-width="1" opacity="0.1450980392156863" d="M 231.5 26 L 236 29.5 L 233.5 28 L 231.5 26 Z " /><path fill="rgb(81,62,79)" stroke="rgb(81,62,79)" stroke-width="1" opacity="0.1450980392156863" d="M 183.5 27 L 179.5 32 L 176.5 34 L 174 35.5 L 183.5 27 Z " /><path fill="rgb(81,62,79)" stroke="rgb(81,62,79)" stroke-width="1" opacity="0.1450980392156863" d="M 393.5 28 L 392.5 30 L 387 29.5 L 393.5 28 Z " /><path fill="rgb(81,62,79)" stroke="rgb(81,62,79)" stroke-width="1" opacity="0.1450980392156863" d="M 154.5 29 L 153.5 31 L 154.5 29 Z " /><path fill="rgb(81,62,79)" stroke="rgb(81,62,79)" stroke-width="1" opacity="0.1450980392156863" d="M 262.5 29 L 263.5 31 L 262.5 29 Z " /><path fill="rgb(81,62,79)" stroke="rgb(81,62,79)" stroke-width="1" opacity="0.1450980392156863" d="M 397.5 29 L 403 29.5 L 397.5 30 L 397.5 29 Z " /><path fill="rgb(81,62,79)" stroke="rgb(81,62,79)" stroke-width="1" opacity="0.1450980392156863" d="M 237.5 30 L 242.5 36 L 237 31.5 L 237.5 30 Z " /><path fill="rgb(81,62,79)" stroke="rgb(81,62,79)" stroke-width="1" opacity="0.1450980392156863" d="M 383.5 30 L 386 30.5 L 381.5 32 L 381.5 31 L 383.5 30 Z " /><path fill="rgb(81,62,79)" stroke="rgb(81,62,79)" stroke-width="1" opacity="0.1450980392156863" d="M 404.5 30 L 411 32.5 L 409.5 32 L 404.5 31 L 404.5 30 Z " /><path fill="rgb(81,62,79)" stroke="rgb(81,62,79)" stroke-width="1" opacity="0.1450980392156863" d="M 152.5 32 L 152 33.5 L 149.5 39 L 149 37.5 L 152.5 32 Z " /><path fill="rgb(81,62,79)" stroke="rgb(81,62,79)" stroke-width="1" opacity="0.1450980392156863" d="M 264.5 32 L 269 40.5 L 268 40.5 L 264.5 32 Z " /><path fill="rgb(81,62,79)" stroke="rgb(81,62,79)" stroke-width="1" opacity="0.1450980392156863" d="M 378.5 32 L 380 32.5 L 377.5 34 L 378.5 32 Z " /><path fill="rgb(81,62,79)" stroke="rgb(81,62,79)" stroke-width="1" opacity="0.1450980392156863" d="M 375.5 34 L 373.5 37 L 373 35 L 375.5 34 Z " /><path fill="rgb(81,62,79)" stroke="rgb(81,62,79)" stroke-width="1" opacity="0.1450980392156863" d="M 414.5 34 L 420 38.5 L 422 41.5 L 419 39.5 Q 419.8 37.3 417.5 38 L 414.5 34 Z " /><path fill="rgb(81,62,79)" stroke="rgb(81,62,79)" stroke-width="1" opacity="0.1450980392156863" d="M 173.5 37 L 171.5 40 L 173.5 37 Z " /><path fill="rgb(81,62,79)" stroke="rgb(81,62,79)" stroke-width="1" opacity="0.1450980392156863" d="M 371.5 37 L 367.5 42 L 361.5 47 L 361 45.5 L 371.5 37 Z " /><path fill="rgb(81,62,79)" stroke="rgb(81,62,79)" stroke-width="1" opacity="0.1450980392156863" d="M 244.5 38 L 245.5 40 L 244.5 38 Z " /><path fill="rgb(81,62,79)" stroke="rgb(81,62,79)" stroke-width="1" opacity="0.1450980392156863" d="M 148.5 40 L 149 41.5 L 147.5 44 L 147 42.5 L 148.5 40 Z " /><path fill="rgb(81,62,79)" stroke="rgb(81,62,79)" stroke-width="1" opacity="0.1450980392156863" d="M 170.5 41 L 169.5 43 L 170.5 41 Z " /><path fill="rgb(81,62,79)" stroke="rgb(81,62,79)" stroke-width="1" opacity="0.1450980392156863" d="M 246.5 41 L 247.5 43 L 246.5 41 Z " /><path fill="rgb(81,62,79)" stroke="rgb(81,62,79)" stroke-width="1" opacity="0.1450980392156863" d="M 168.5 44 L 169 45.5 L 166.5 50 L 166 48.5 L 168.5 44 Z " /><path fill="rgb(81,62,79)" stroke="rgb(81,62,79)" stroke-width="1" opacity="0.1450980392156863" d="M 248.5 44 L 250 46.5 L 248 45.5 L 248.5 44 Z " /><path fill="rgb(81,62,79)" stroke="rgb(81,62,79)" stroke-width="1" opacity="0.1450980392156863" d="M 145.5 48 L 146 50.5 L 145 50.5 L 145.5 48 Z " /><path fill="rgb(81,62,79)" stroke="rgb(81,62,79)" stroke-width="1" opacity="0.1450980392156863" d="M 271.5 48 L 272 50.5 L 271 50.5 L 271.5 48 Z " /><path fill="rgb(81,62,79)" stroke="rgb(81,62,79)" stroke-width="1" opacity="0.1450980392156863" d="M 358.5 48 L 353.5 54 L 335.5 69 L 337.5 66 L 346 60 Q 344.9 57.3 347.5 58 L 358.5 48 Z " /><path fill="rgb(81,62,79)" stroke="rgb(81,62,79)" stroke-width="1" opacity="0.1450980392156863" d="M 391.5 49 L 395 49.5 L 390.5 51 L 391.5 49 Z " /><path fill="rgb(81,62,79)" stroke="rgb(81,62,79)" stroke-width="1" opacity="0.1450980392156863" d="M 397.5 49 L 400 50.5 L 398.5 50 L 397.5 49 Z " /><path fill="rgb(81,62,79)" stroke="rgb(81,62,79)" stroke-width="1" opacity="0.1450980392156863" d="M 401.5 50 Q 406.6 52.4 408 58.5 L 407 58.5 L 401.5 50 Z " /><path fill="rgb(81,62,79)" stroke="rgb(81,62,79)" stroke-width="1" opacity="0.1450980392156863" d="M 386.5 51 L 387 53 L 385 53 Q 386.1 55.7 383.5 55 L 372 64 Q 373.1 66.7 370.5 66 L 373.5 62 L 386.5 51 Z " /><path fill="rgb(81,62,79)" stroke="rgb(81,62,79)" stroke-width="1" opacity="0.1450980392156863" d="M 144.5 52 L 145 56.5 L 144 56.5 L 144.5 52 Z " /><path fill="rgb(81,62,79)" stroke="rgb(81,62,79)" stroke-width="1" opacity="0.1450980392156863" d="M 272.5 52 L 273 56.5 L 272 56.5 L 272.5 52 Z " /><path fill="rgb(81,62,79)" stroke="rgb(81,62,79)" stroke-width="1" opacity="0.1450980392156863" d="M 164 54 L 166 54.5 L 164.5 58 L 164 54 Z " /><path fill="rgb(81,62,79)" stroke="rgb(81,62,79)" stroke-width="1" opacity="0.1450980392156863" d="M 252.5 54 L 253 57.5 L 252 57.5 L 252.5 54 Z " /><path fill="rgb(81,62,79)" stroke="rgb(81,62,79)" stroke-width="1" opacity="0.1450980392156863" d="M 143.5 59 L 144 71.5 L 143 71.5 L 143.5 59 Z " /><path fill="rgb(81,62,79)" stroke="rgb(81,62,79)" stroke-width="1" opacity="0.1450980392156863" d="M 163 59 L 165 59.5 L 164 60.5 L 163.5 72 L 163 59 Z " /><path fill="rgb(81,62,79)" stroke="rgb(81,62,79)" stroke-width="1" opacity="0.1450980392156863" d="M 253.5 59 L 254 71.5 L 253 71.5 L 253.5 59 Z " /><path fill="rgb(81,62,79)" stroke="rgb(81,62,79)" stroke-width="1" opacity="0.1450980392156863" d="M 273.5 59 L 274 71.5 L 273 71.5 L 273.5 59 Z " /><path fill="rgb(81,62,79)" stroke="rgb(81,62,79)" stroke-width="1" opacity="0.1450980392156863" d="M 407.5 60 L 409 63.5 L 407 64.5 L 408 62.5 L 407.5 60 Z " /><path fill="rgb(81,62,79)" stroke="rgb(81,62,79)" stroke-width="1" opacity="0.1450980392156863" d="M 407.5 66 L 407 67.5 L 396.5 79 L 404 70.5 L 407.5 66 Z " /><path fill="rgb(81,62,79)" stroke="rgb(81,62,79)" stroke-width="1" opacity="0.1450980392156863" d="M 368.5 67 L 366.5 70 L 363.5 72 L 356 78.5 L 353.5 82 L 350.5 84 L 357.5 76 L 368.5 67 Z " /><path fill="rgb(81,62,79)" stroke="rgb(81,62,79)" stroke-width="1" opacity="0.1450980392156863" d="M 333.5 70 L 326.5 78 L 316.5 86 L 317.5 84 L 320.5 82 L 333.5 70 Z " /><path fill="rgb(81,62,79)" stroke="rgb(81,62,79)" stroke-width="1" opacity="0.1450980392156863" d="M 164.5 73 L 165 76.5 L 164 76.5 L 164.5 73 Z " /><path fill="rgb(81,62,79)" stroke="rgb(81,62,79)" stroke-width="1" opacity="0.1450980392156863" d="M 252.5 73 L 253 76.5 L 252 76.5 L 252.5 73 Z " /><path fill="rgb(81,62,79)" stroke="rgb(81,62,79)" stroke-width="1" opacity="0.1450980392156863" d="M 273.5 73 L 274 74.5 L 272.5 79 L 272 75.5 L 273.5 73 Z " /><path fill="rgb(81,62,79)" stroke="rgb(81,62,79)" stroke-width="1" opacity="0.1450980392156863" d="M 144.5 74 L 145 78.5 L 144 78.5 L 144.5 74 Z " /><path fill="rgb(81,62,79)" stroke="rgb(81,62,79)" stroke-width="1" opacity="0.1450980392156863" d="M 165.5 78 L 168 84.5 L 167 84.5 Q 164 82 165.5 78 Z " /><path fill="rgb(81,62,79)" stroke="rgb(81,62,79)" stroke-width="1" opacity="0.1450980392156863" d="M 145.5 80 L 146 82.5 L 145 82.5 L 145.5 80 Z " /><path fill="rgb(81,62,79)" stroke="rgb(81,62,79)" stroke-width="1" opacity="0.1450980392156863" d="M 271.5 80 L 272 83.5 Q 267.8 98 260 108 Q 257.3 106.9 258 109.5 L 253 113 Q 254.1 115.7 251.5 115 L 250 118 L 238.5 125 L 229.5 128 L 229.5 127 Q 249.1 120.6 260 105.5 Q 268.6 95.6 271.5 80 Z " /><path fill="rgb(81,62,79)" stroke="rgb(81,62,79)" stroke-width="1" opacity="0.1450980392156863" d="M 422.5 81 L 412.5 92 L 422.5 81 Z " /><path fill="rgb(81,62,79)" stroke="rgb(81,62,79)" stroke-width="1" opacity="0.1450980392156863" d="M 146.5 84 L 148 88.5 L 147 88.5 L 146.5 84 Z " /><path fill="rgb(81,62,79)" stroke="rgb(81,62,79)" stroke-width="1" opacity="0.1450980392156863" d="M 348.5 84 L 349 85.5 L 340.5 93 L 348.5 84 Z " /><path fill="rgb(81,62,79)" stroke="rgb(81,62,79)" stroke-width="1" opacity="0.1450980392156863" d="M 389.5 85 L 391 85.5 L 371 104.5 L 378.5 96 L 381.5 94 L 383 91 Q 385.7 92.1 385 89.5 L 388 88 L 389.5 85 Z " /><path fill="rgb(81,62,79)" stroke="rgb(81,62,79)" stroke-width="1" opacity="0.1450980392156863" d="M 168.5 86 L 173 92.5 L 170 90.5 L 168.5 86 Z " /><path fill="rgb(81,62,79)" stroke="rgb(81,62,79)" stroke-width="1" opacity="0.1450980392156863" d="M 314.5 87 L 307.5 95 L 307 93 L 309 93 Q 307.9 90.3 310.5 91 L 314.5 87 Z " /><path fill="rgb(81,62,79)" stroke="rgb(81,62,79)" stroke-width="1" opacity="0.1450980392156863" d="M 247.5 88 L 247 89.5 Q 243.7 97.7 236.5 102 L 244 93.5 L 247.5 88 Z " /><path fill="rgb(81,62,79)" stroke="rgb(81,62,79)" stroke-width="1" opacity="0.1450980392156863" d="M 148.5 90 Q 155.3 107.3 169 117.5 L 167.5 117 L 160 110.5 L 150 96.5 L 148.5 90 Z " /><path fill="rgb(81,62,79)" stroke="rgb(81,62,79)" stroke-width="1" opacity="0.1450980392156863" d="M 411.5 93 L 409.5 96 L 411.5 93 Z " /><path fill="rgb(81,62,79)" stroke="rgb(81,62,79)" stroke-width="1" opacity="0.1450980392156863" d="M 173.5 94 L 180.5 102 L 173.5 94 Z " /><path fill="rgb(81,62,79)" stroke="rgb(81,62,79)" stroke-width="1" opacity="0.1450980392156863" d="M 337.5 94 L 339 94.5 L 333.5 99 L 337.5 94 Z " /><path fill="rgb(81,62,79)" stroke="rgb(81,62,79)" stroke-width="1" opacity="0.1450980392156863" d="M 305.5 95 L 297.5 104 L 295.5 105 L 298.5 101 L 305.5 95 Z " /><path fill="rgb(81,62,79)" stroke="rgb(81,62,79)" stroke-width="1" opacity="0.1450980392156863" d="M 331.5 100 L 330.5 102 L 331.5 100 Z " /><path fill="rgb(81,62,79)" stroke="rgb(81,62,79)" stroke-width="1" opacity="0.1450980392156863" d="M 182.5 102 L 192 107.5 L 190.5 108 Q 184 106.3 182.5 102 Z " /><path fill="rgb(81,62,79)" stroke="rgb(81,62,79)" stroke-width="1" opacity="0.1450980392156863" d="M 234.5 102 L 233.5 104 L 234.5 102 Z " /><path fill="rgb(81,62,79)" stroke="rgb(81,62,79)" stroke-width="1" opacity="0.1450980392156863" d="M 328.5 102 L 329 104 L 327 104 Q 328.1 106.7 325.5 106 L 322 108.5 L 328.5 102 Z " /><path fill="rgb(81,62,79)" stroke="rgb(81,62,79)" stroke-width="1" opacity="0.1450980392156863" d="M 401.5 103 L 393 112.5 Q 393.8 114.8 391.5 114 L 388 116.5 L 401.5 103 Z " /><path fill="rgb(81,62,79)" stroke="rgb(81,62,79)" stroke-width="1" opacity="0.1450980392156863" d="M 231.5 104 L 230.5 106 L 228.5 107 L 229.5 105 L 231.5 104 Z " /><path fill="rgb(81,62,79)" stroke="rgb(81,62,79)" stroke-width="1" opacity="0.1450980392156863" d="M 293.5 106 L 288.5 112 L 288 110.5 L 293.5 106 Z " /><path fill="rgb(81,62,79)" stroke="rgb(81,62,79)" stroke-width="1" opacity="0.1450980392156863" d="M 369.5 106 L 365.5 111 L 369.5 106 Z " /><path fill="rgb(81,62,79)" stroke="rgb(81,62,79)" stroke-width="1" opacity="0.1450980392156863" d="M 225.5 107 L 227 107.5 L 219.5 110 L 219.5 109 L 225.5 107 Z " /><path fill="rgb(81,62,79)" stroke="rgb(81,62,79)" stroke-width="1" opacity="0.1450980392156863" d="M 193.5 108 L 198 109.5 L 195.5 110 L 193.5 108 Z " /><path fill="rgb(81,62,79)" stroke="rgb(81,62,79)" stroke-width="1" opacity="0.1450980392156863" d="M 199.5 110 L 205 110.5 L 199.5 111 L 199.5 110 Z " /><path fill="rgb(81,62,79)" stroke="rgb(81,62,79)" stroke-width="1" opacity="0.1450980392156863" d="M 212.5 110 L 218 110.5 L 212.5 111 L 212.5 110 Z " /><path fill="rgb(81,62,79)" stroke="rgb(81,62,79)" stroke-width="1" opacity="0.1450980392156863" d="M 286.5 112 L 279.5 120 L 264.5 133 L 264 131 L 265.5 131 L 286.5 112 Z " /><path fill="rgb(81,62,79)" stroke="rgb(81,62,79)" stroke-width="1" opacity="0.1450980392156863" d="M 317.5 112 L 319 112.5 L 300.5 128 L 300.5 127 L 317.5 112 Z " /><path fill="rgb(81,62,79)" stroke="rgb(81,62,79)" stroke-width="1" opacity="0.1450980392156863" d="M 363.5 112 L 364 113.5 L 360 116.5 L 362 113.5 L 363.5 112 Z " /><path fill="rgb(81,62,79)" stroke="rgb(81,62,79)" stroke-width="1" opacity="0.1450980392156863" d="M 358.5 117 L 359 118.5 L 338 138.5 L 346.5 129 L 348 129 L 348 127 Q 350.7 128.1 350 125.5 L 353 124 L 353 122 L 355 122 Q 353.9 119.3 356.5 120 L 358.5 117 Z " /><path fill="rgb(81,62,79)" stroke="rgb(81,62,79)" stroke-width="1" opacity="0.1450980392156863" d="M 170.5 118 Q 177.4 124.6 188 127.5 L 185.5 128 L 170 120 L 170.5 118 Z " /><path fill="rgb(81,62,79)" stroke="rgb(81,62,79)" stroke-width="1" opacity="0.1450980392156863" d="M 387.5 118 L 383.5 123 L 387.5 118 Z " /><path fill="rgb(81,62,79)" stroke="rgb(81,62,79)" stroke-width="1" opacity="0.1450980392156863" d="M 381.5 124 L 374.5 132 L 381.5 124 Z " /><path fill="rgb(81,62,79)" stroke="rgb(81,62,79)" stroke-width="1" opacity="0.1450980392156863" d="M 189.5 128 L 192 128.5 L 189.5 129 L 189.5 128 Z " /><path fill="rgb(81,62,79)" stroke="rgb(81,62,79)" stroke-width="1" opacity="0.1450980392156863" d="M 225.5 128 L 228 128.5 Q 226.3 130.8 221.5 130 L 221.5 129 L 225.5 128 Z " /><path fill="rgb(81,62,79)" stroke="rgb(81,62,79)" stroke-width="1" opacity="0.1450980392156863" d="M 193.5 129 L 196 129.5 L 193.5 130 L 193.5 129 Z " /><path fill="rgb(81,62,79)" stroke="rgb(81,62,79)" stroke-width="1" opacity="0.1450980392156863" d="M 298.5 129 L 300 129.5 L 290 137 Q 291.1 139.7 288.5 139 L 287 139.5 L 298.5 129 Z " /><path fill="rgb(81,62,79)" stroke="rgb(81,62,79)" stroke-width="1" opacity="0.1450980392156863" d="M 197.5 130 L 204 130.5 L 197.5 131 L 197.5 130 Z " /><path fill="rgb(81,62,79)" stroke="rgb(81,62,79)" stroke-width="1" opacity="0.1450980392156863" d="M 213.5 130 L 220 130.5 L 211.5 132 L 211.5 131 L 213.5 130 Z " /><path fill="rgb(81,62,79)" stroke="rgb(81,62,79)" stroke-width="1" opacity="0.1450980392156863" d="M 372.5 133 L 362 144.5 L 352.5 155 L 354 152.5 L 372.5 133 Z " /><path fill="rgb(81,62,79)" stroke="rgb(81,62,79)" stroke-width="1" opacity="0.1450980392156863" d="M 260.5 134 L 261 135.5 L 258 137.5 L 260.5 134 Z " /><path fill="rgb(81,62,79)" stroke="rgb(81,62,79)" stroke-width="1" opacity="0.1450980392156863" d="M 255.5 138 L 257 138.5 L 254.5 140 L 255.5 138 Z " /><path fill="rgb(81,62,79)" stroke="rgb(81,62,79)" stroke-width="1" opacity="0.1450980392156863" d="M 249.5 140 L 251 140.5 Q 249.8 143.3 244.5 142 L 244.5 141 L 249.5 140 Z " /><path fill="rgb(81,62,79)" stroke="rgb(81,62,79)" stroke-width="1" opacity="0.1450980392156863" d="M 336.5 140 L 331.5 146 L 336.5 140 Z " /><path fill="rgb(81,62,79)" stroke="rgb(81,62,79)" stroke-width="1" opacity="0.1450980392156863" d="M 241.5 141 L 243 141.5 L 241.5 143 L 233.5 143 L 233.5 142 Q 239.7 143.8 241.5 141 Z " /><path fill="rgb(81,62,79)" stroke="rgb(81,62,79)" stroke-width="1" opacity="0.1450980392156863" d="M 285.5 141 L 282.5 145 L 273.5 152 L 276.5 148 L 285.5 141 Z " /><path fill="rgb(81,62,79)" stroke="rgb(81,62,79)" stroke-width="1" opacity="0.1450980392156863" d="M 229.5 142 L 232 142.5 Q 228.2 145.2 220.5 144 L 220.5 143 L 228.5 143 L 229.5 142 Z " /><path fill="rgb(81,62,79)" stroke="rgb(81,62,79)" stroke-width="1" opacity="0.1450980392156863" d="M 216.5 143 L 215.5 145 L 206 144.5 L 215.5 144 L 216.5 143 Z " /><path fill="rgb(81,62,79)" stroke="rgb(81,62,79)" stroke-width="1" opacity="0.1450980392156863" d="M 203.5 144 L 205 144.5 Q 202.6 147.1 196.5 146 L 196.5 145 Q 202 146.5 203.5 144 Z " /><path fill="rgb(81,62,79)" stroke="rgb(81,62,79)" stroke-width="1" opacity="0.1450980392156863" d="M 190.5 145 L 194 145.5 L 189.5 147 L 177.5 147 L 176.5 148 L 160.5 149 L 160.5 148 L 174.5 147 L 175.5 146 L 177.5 146 L 189.5 146 L 190.5 145 Z " /><path fill="rgb(81,62,79)" stroke="rgb(81,62,79)" stroke-width="1" opacity="0.1450980392156863" d="M 328.5 148 L 328 149.5 L 326.5 152 L 321.5 156 L 306.5 172 L 314 163.5 L 315.5 161 L 318 159.5 L 328.5 148 Z " /><path fill="rgb(81,62,79)" stroke="rgb(81,62,79)" stroke-width="1" opacity="0.1450980392156863" d="M 155.5 149 L 159 149.5 L 155.5 150 L 155.5 149 Z " /><path fill="rgb(81,62,79)" stroke="rgb(81,62,79)" stroke-width="1" opacity="0.1450980392156863" d="M 148.5 151 L 151 151.5 L 143.5 154 L 143.5 153 L 148.5 151 Z " /><path fill="rgb(81,62,79)" stroke="rgb(81,62,79)" stroke-width="1" opacity="0.1450980392156863" d="M 270.5 153 L 272 153.5 L 261.5 160 L 261 158 L 270.5 153 Z " /><path fill="rgb(81,62,79)" stroke="rgb(81,62,79)" stroke-width="1" opacity="0.1450980392156863" d="M 140.5 154 L 142 154.5 Q 123 162.5 111 177.5 L 108.5 181 L 109 179.5 L 115.5 171 Q 125.7 160.2 140.5 154 Z " /><path fill="rgb(81,62,79)" stroke="rgb(81,62,79)" stroke-width="1" opacity="0.1450980392156863" d="M 350.5 156 L 348.5 159 L 350.5 156 Z " /><path fill="rgb(81,62,79)" stroke="rgb(81,62,79)" stroke-width="1" opacity="0.1450980392156863" d="M 255.5 160 L 258 160.5 L 250.5 163 L 226.5 164 L 225.5 165 L 224.5 163 L 249.5 162 L 255.5 160 Z " /><path fill="rgb(81,62,79)" stroke="rgb(81,62,79)" stroke-width="1" opacity="0.1450980392156863" d="M 345.5 161 L 329 178.5 Q 329.8 180.8 327.5 180 L 322.5 186 L 322 184.5 L 345.5 161 Z " /><path fill="rgb(81,62,79)" stroke="rgb(81,62,79)" stroke-width="1" opacity="0.1450980392156863" d="M 210.5 164 L 220 164.5 L 210.5 165 L 209.5 166 L 210.5 164 Z " /><path fill="rgb(81,62,79)" stroke="rgb(81,62,79)" stroke-width="1" opacity="0.1450980392156863" d="M 197.5 165 L 207 165.5 L 197.5 166 L 197.5 165 Z " /><path fill="rgb(81,62,79)" stroke="rgb(81,62,79)" stroke-width="1" opacity="0.1450980392156863" d="M 185.5 166 L 193 166.5 L 181.5 168 L 181.5 167 L 185.5 166 Z " /><path fill="rgb(81,62,79)" stroke="rgb(81,62,79)" stroke-width="1" opacity="0.1450980392156863" d="M 172.5 167 L 180 167.5 L 164.5 169 L 150.5 173 L 141.5 178 L 142.5 176 L 159.5 169 L 171.5 168 L 172.5 167 Z " /><path fill="rgb(81,62,79)" stroke="rgb(81,62,79)" stroke-width="1" opacity="0.1450980392156863" d="M 304.5 173 L 302.5 176 L 304.5 173 Z " /><path fill="rgb(81,62,79)" stroke="rgb(81,62,79)" stroke-width="1" opacity="0.1450980392156863" d="M 300.5 177 L 298.5 180 L 300.5 177 Z " /><path fill="rgb(81,62,79)" stroke="rgb(81,62,79)" stroke-width="1" opacity="0.1450980392156863" d="M 139.5 178 L 140 180 L 136 181 Q 137.1 183.7 134.5 183 L 131 185.5 L 139.5 178 Z " /><path fill="rgb(81,62,79)" stroke="rgb(81,62,79)" stroke-width="1" opacity="0.1450980392156863" d="M 296.5 181 L 295 183.5 L 284.5 195 L 294 184.5 L 296.5 181 Z " /><path fill="rgb(81,62,79)" stroke="rgb(81,62,79)" stroke-width="1" opacity="0.1450980392156863" d="M 107.5 182 L 106.5 184 L 107.5 182 Z " /><path fill="rgb(81,62,79)" stroke="rgb(81,62,79)" stroke-width="1" opacity="0.1450980392156863" d="M 105.5 185 L 105 186.5 L 101.5 193 L 101 191.5 L 105.5 185 Z " /><path fill="rgb(81,62,79)" stroke="rgb(81,62,79)" stroke-width="1" opacity="0.1450980392156863" d="M 129.5 187 L 125.5 192 L 129.5 187 Z " /><path fill="rgb(81,62,79)" stroke="rgb(81,62,79)" stroke-width="1" opacity="0.1450980392156863" d="M 319.5 188 L 317.5 191 L 316 190.5 L 319.5 188 Z " /><path fill="rgb(81,62,79)" stroke="rgb(81,62,79)" stroke-width="1" opacity="0.1450980392156863" d="M 124.5 193 L 125 194.5 L 123 198 L 121 197.5 L 124.5 193 Z " /><path fill="rgb(81,62,79)" stroke="rgb(81,62,79)" stroke-width="1" opacity="0.1450980392156863" d="M 314.5 193 L 306 202.5 L 304 205.5 L 300 208 Q 301.1 210.7 298.5 210 L 296 211.5 L 314.5 193 Z " /><path fill="rgb(81,62,79)" stroke="rgb(81,62,79)" stroke-width="1" opacity="0.1450980392156863" d="M 99.5 196 L 100 197.5 L 96.5 206 L 96 203.5 L 99.5 196 Z " /><path fill="rgb(81,62,79)" stroke="rgb(81,62,79)" stroke-width="1" opacity="0.1450980392156863" d="M 282.5 196 L 284 196.5 Q 275.8 201.6 275 213 L 273 212.5 Q 275.5 202 282.5 196 Z " /><path fill="rgb(81,62,79)" stroke="rgb(81,62,79)" stroke-width="1" opacity="0.1450980392156863" d="M 119.5 201 L 120 202.5 L 117.5 207 L 117 205.5 L 119.5 201 Z " /><path fill="rgb(81,62,79)" stroke="rgb(81,62,79)" stroke-width="1" opacity="0.1450980392156863" d="M 116 208 L 118 208.5 L 116 211.5 L 116 216.5 L 114 223.5 L 114 225.5 L 113.5 265 L 113 221.5 L 116 208 Z " /><path fill="rgb(81,62,79)" stroke="rgb(81,62,79)" stroke-width="1" opacity="0.1450980392156863" d="M 94.5 211 L 95 214.5 L 94 215.5 L 93.5 224 L 93 215.5 L 94.5 211 Z " /><path fill="rgb(81,62,79)" stroke="rgb(81,62,79)" stroke-width="1" opacity="0.1450980392156863" d="M 295.5 213 L 295 214.5 L 294.5 217 L 294 214.5 L 295.5 213 Z " /><path fill="rgb(81,62,79)" stroke="rgb(81,62,79)" stroke-width="1" opacity="0.1450980392156863" d="M 273.5 214 L 274 280.5 L 273 280.5 L 273.5 214 Z " /><path fill="rgb(81,62,79)" stroke="rgb(81,62,79)" stroke-width="1" opacity="0.1450980392156863" d="M 293.5 218 L 294 237.5 L 293 237.5 L 293.5 218 Z " /><path fill="rgb(81,62,79)" stroke="rgb(81,62,79)" stroke-width="1" opacity="0.1450980392156863" d="M 92.5 225 L 93 227.5 L 92 227.5 L 92.5 225 Z " /><path fill="rgb(81,62,79)" stroke="rgb(81,62,79)" stroke-width="1" opacity="0.1450980392156863" d="M 92.5 232 L 93 240.5 L 92 240.5 L 92.5 232 Z " /><path fill="rgb(81,62,79)" stroke="rgb(81,62,79)" stroke-width="1" opacity="0.1450980392156863" d="M 137.5 244 L 141 244.5 L 137.5 245 L 137.5 244 Z " /><path fill="rgb(81,62,79)" stroke="rgb(81,62,79)" stroke-width="1" opacity="0.1450980392156863" d="M 134.5 245 L 136 245.5 L 130.5 250 L 134.5 245 Z " /><path fill="rgb(81,62,79)" stroke="rgb(81,62,79)" stroke-width="1" opacity="0.1450980392156863" d="M 145.5 246 L 147.5 249 L 145.5 246 Z " /><path fill="rgb(81,62,79)" stroke="rgb(81,62,79)" stroke-width="1" opacity="0.1450980392156863" d="M 294.5 250 L 295 303.5 L 294 303.5 L 294.5 250 Z " /><path fill="rgb(81,62,79)" stroke="rgb(81,62,79)" stroke-width="1" opacity="0.1450980392156863" d="M 129.5 251 L 130 311.5 L 129 311.5 L 129.5 251 Z " /><path fill="rgb(81,62,79)" stroke="rgb(81,62,79)" stroke-width="1" opacity="0.1450980392156863" d="M 149.5 253 L 150 283.5 L 149 283.5 L 149.5 253 Z " /><path fill="rgb(81,62,79)" stroke="rgb(81,62,79)" stroke-width="1" opacity="0.1450980392156863" d="M 92.5 265 L 93 289.5 L 92 289.5 L 92.5 265 Z " /><path fill="rgb(81,62,79)" stroke="rgb(81,62,79)" stroke-width="1" opacity="0.1450980392156863" d="M 112.5 266 L 113 311.5 L 112 311.5 L 112.5 266 Z " /><path fill="rgb(81,62,79)" stroke="rgb(81,62,79)" stroke-width="1" opacity="0.1450980392156863" d="M 273 283 L 275 283.5 L 275 294.5 L 273.5 298 L 273 288.5 L 273 286.5 L 273 283 Z " /><path fill="rgb(81,62,79)" stroke="rgb(81,62,79)" stroke-width="1" opacity="0.1450980392156863" d="M 274.5 303 L 275 310.5 L 273.5 312 L 163.5 312 L 163.5 311 L 273.5 311 L 274 310.5 L 274.5 303 Z " /><path fill="rgb(81,62,79)" stroke="rgb(81,62,79)" stroke-width="1" opacity="0.1450980392156863" d="M 149.5 306 L 151 311.5 L 149 312 L 149.5 306 Z " /><path fill="rgb(81,62,79)" stroke="rgb(81,62,79)" stroke-width="1" opacity="0.1450980392156863" d="M 294.5 309 L 295 314.5 L 294 314.5 L 294.5 309 Z " /><path fill="rgb(81,62,79)" stroke="rgb(81,62,79)" stroke-width="1" opacity="0.1450980392156863" d="M 91.5 312 L 92 315 L 90 314.5 L 91.5 312 Z " /><path fill="rgb(81,62,79)" stroke="rgb(81,62,79)" stroke-width="1" opacity="0.1450980392156863" d="M 33.5 314 L 86 314.5 L 33.5 315 L 33.5 314 Z " /><path fill="rgb(81,62,79)" stroke="rgb(81,62,79)" stroke-width="1" opacity="0.1450980392156863" d="M 301.5 314 L 320 314.5 L 301.5 315 L 301.5 314 Z " /><path fill="rgb(81,62,79)" stroke="rgb(81,62,79)" stroke-width="1" opacity="0.1450980392156863" d="M 27.5 315 L 31 315.5 L 25.5 317 L 25.5 316 L 27.5 315 Z " /><path fill="rgb(81,62,79)" stroke="rgb(81,62,79)" stroke-width="1" opacity="0.1450980392156863" d="M 377.5 315 L 388 315.5 L 377.5 316 L 377.5 315 Z " /><path fill="rgb(81,62,79)" stroke="rgb(81,62,79)" stroke-width="1" opacity="0.1450980392156863" d="M 391.5 316 L 394 316.5 L 391.5 317 L 391.5 316 Z " /><path fill="rgb(81,62,79)" stroke="rgb(81,62,79)" stroke-width="1" opacity="0.1450980392156863" d="M 22.5 317 L 24 317.5 Q 13.8 321.3 8 329.5 L 4.5 336 L 4 334.5 L 12.5 323 L 22.5 317 Z " /><path fill="rgb(81,62,79)" stroke="rgb(81,62,79)" stroke-width="1" opacity="0.1450980392156863" d="M 398.5 318 Q 407.8 321.2 413 328.5 L 415 331.5 L 412 329.5 L 406.5 323 L 398.5 319 L 398.5 318 Z " /><path fill="rgb(81,62,79)" stroke="rgb(81,62,79)" stroke-width="1" opacity="0.1450980392156863" d="M 80.5 334 L 83 334.5 L 80.5 335 L 80.5 334 Z " /><path fill="rgb(81,62,79)" stroke="rgb(81,62,79)" stroke-width="1" opacity="0.1450980392156863" d="M 32.5 335 L 34 335.5 Q 27.1 337.6 23.5 343 L 25 340.5 Q 24.3 338.3 26.5 339 L 32.5 335 Z " /><path fill="rgb(81,62,79)" stroke="rgb(81,62,79)" stroke-width="1" opacity="0.1450980392156863" d="M 333.5 335 L 388 335.5 L 333.5 336 L 333.5 335 Z " /><path fill="rgb(81,62,79)" stroke="rgb(81,62,79)" stroke-width="1" opacity="0.1450980392156863" d="M 392.5 337 L 394.5 340 L 392.5 337 Z " /><path fill="rgb(81,62,79)" stroke="rgb(81,62,79)" stroke-width="1" opacity="0.1450980392156863" d="M 396.5 341 L 397.5 343 L 396.5 341 Z " /><path fill="rgb(81,62,79)" stroke="rgb(81,62,79)" stroke-width="1" opacity="0.1450980392156863" d="M 1.5 342 L 2 344.5 L 1 344.5 L 1.5 342 Z " /><path fill="rgb(81,62,79)" stroke="rgb(81,62,79)" stroke-width="1" opacity="0.1450980392156863" d="M 419.5 342 L 420 344.5 L 419 344.5 L 419.5 342 Z " /><path fill="rgb(81,62,79)" stroke="rgb(81,62,79)" stroke-width="1" opacity="0.1450980392156863" d="M 22.5 344 L 23 345.5 L 21 352.5 L 21 376.5 L 21.5 378 L 20 376.5 L 20 351.5 L 22.5 344 Z " /><path fill="rgb(81,62,79)" stroke="rgb(81,62,79)" stroke-width="1" opacity="0.1450980392156863" d="M 398.5 344 L 400 348.5 L 399 348.5 L 398.5 344 Z " /><path fill="rgb(81,62,79)" stroke="rgb(81,62,79)" stroke-width="1" opacity="0.1450980392156863" d="M 420.5 348 L 421 367.5 L 420 367.5 L 420.5 348 Z " /><path fill="rgb(81,62,79)" stroke="rgb(81,62,79)" stroke-width="1" opacity="0.1450980392156863" d="M 0.5 349 L 1 377.5 L 0 377.5 L 0.5 349 Z " /><path fill="rgb(81,62,79)" stroke="rgb(81,62,79)" stroke-width="1" opacity="0.1450980392156863" d="M 400.5 350 L 401 376.5 L 399.5 381 L 399 377.5 L 400 376.5 L 400.5 350 Z " /><path fill="rgb(81,62,79)" stroke="rgb(81,62,79)" stroke-width="1" opacity="0.1450980392156863" d="M 21.5 379 L 23 383.5 L 22 383.5 L 21.5 379 Z " /><path fill="rgb(81,62,79)" stroke="rgb(81,62,79)" stroke-width="1" opacity="0.1450980392156863" d="M 398.5 382 L 398 383.5 L 392.5 390 L 396 385.5 L 398.5 382 Z " /><path fill="rgb(81,62,79)" stroke="rgb(81,62,79)" stroke-width="1" opacity="0.1450980392156863" d="M 419.5 382 L 420 384.5 L 419 384.5 L 419.5 382 Z " /><path fill="rgb(81,62,79)" stroke="rgb(81,62,79)" stroke-width="1" opacity="0.1450980392156863" d="M 23.5 385 L 28 388 L 27.5 390 L 23.5 385 Z " /><path fill="rgb(81,62,79)" stroke="rgb(81,62,79)" stroke-width="1" opacity="0.1450980392156863" d="M 417.5 389 L 418 390.5 L 416 391.5 L 417.5 389 Z " /><path fill="rgb(81,62,79)" stroke="rgb(81,62,79)" stroke-width="1" opacity="0.1450980392156863" d="M 29.5 390 L 40 391.5 L 31.5 392 L 29.5 390 Z " /><path fill="rgb(81,62,79)" stroke="rgb(81,62,79)" stroke-width="1" opacity="0.1450980392156863" d="M 56.5 391 L 176 391.5 L 56.5 392 L 56.5 391 Z " /><path fill="rgb(81,62,79)" stroke="rgb(81,62,79)" stroke-width="1" opacity="0.1450980392156863" d="M 4.5 392 L 6 394.5 L 4 393.5 L 4.5 392 Z " /><path fill="rgb(81,62,79)" stroke="rgb(81,62,79)" stroke-width="1" opacity="0.1450980392156863" d="M 217.5 392 L 241 392.5 L 217.5 393 L 217.5 392 Z " /><path fill="rgb(81,62,79)" stroke="rgb(81,62,79)" stroke-width="1" opacity="0.1450980392156863" d="M 243.5 392 L 326 392.5 L 243.5 393 L 243.5 392 Z " /><path fill="rgb(81,62,79)" stroke="rgb(81,62,79)" stroke-width="1" opacity="0.1450980392156863" d="M 327.5 392 L 331 392.5 L 327.5 393 L 327.5 392 Z " /><path fill="rgb(81,62,79)" stroke="rgb(81,62,79)" stroke-width="1" opacity="0.1450980392156863" d="M 337.5 392 L 340 392.5 L 337.5 393 L 337.5 392 Z " /><path fill="rgb(81,62,79)" stroke="rgb(81,62,79)" stroke-width="1" opacity="0.1450980392156863" d="M 341.5 392 L 386 392.5 L 341.5 393 L 341.5 392 Z " /><path fill="rgb(81,62,79)" stroke="rgb(81,62,79)" stroke-width="1" opacity="0.1450980392156863" d="M 415.5 393 L 416 394.5 L 406.5 405 L 412 398.5 L 415.5 393 Z " /><path fill="rgb(81,62,79)" stroke="rgb(81,62,79)" stroke-width="1" opacity="0.1450980392156863" d="M 6.5 396 L 7.5 398 Q 4.7 398.7 6.5 396 Z " /><path fill="rgb(81,62,79)" stroke="rgb(81,62,79)" stroke-width="1" opacity="0.1450980392156863" d="M 8.5 399 L 12.5 404 L 8.5 399 Z " /><path fill="rgb(81,62,79)" stroke="rgb(81,62,79)" stroke-width="1" opacity="0.1450980392156863" d="M 15.5 405 L 16.5 407 L 15.5 405 Z " /><path fill="rgb(81,62,79)" stroke="rgb(81,62,79)" stroke-width="1" opacity="0.1450980392156863" d="M 404.5 405 L 403.5 407 L 404.5 405 Z " /><path fill="rgb(81,62,79)" stroke="rgb(81,62,79)" stroke-width="1" opacity="0.1450980392156863" d="M 394.5 410 L 396 410.5 L 394 411 L 393.5 415 L 393 411.5 L 394.5 410 Z " /><path fill="rgb(81,62,79)" stroke="rgb(81,62,79)" stroke-width="1" opacity="0.1450980392156863" d="M 43.5 412 L 47 412.5 L 43.5 413 L 43.5 412 Z " /><path fill="rgb(81,62,79)" stroke="rgb(81,62,79)" stroke-width="1" opacity="0.1450980392156863" d="M 48.5 412 L 347 412.5 L 48.5 413 L 48.5 412 Z " /><path fill="rgb(81,62,79)" stroke="rgb(81,62,79)" stroke-width="1" opacity="0.1450980392156863" d="M 357.5 412 L 373 412.5 L 357.5 413 L 357.5 412 Z " /><path fill="rgb(81,62,79)" stroke="rgb(81,62,79)" stroke-width="1" opacity="0.1450980392156863" d="M 42.5 414 L 48 433.5 L 48 437.5 L 47 437.5 L 42.5 414 Z " /><path fill="rgb(81,62,79)" stroke="rgb(81,62,79)" stroke-width="1" opacity="0.1450980392156863" d="M 372.5 414 L 373 416.5 L 372 416.5 L 372.5 414 Z " /><path fill="rgb(81,62,79)" stroke="rgb(81,62,79)" stroke-width="1" opacity="0.1450980392156863" d="M 392.5 416 L 393 419.5 L 392 419.5 L 392.5 416 Z " /><path fill="rgb(81,62,79)" stroke="rgb(81,62,79)" stroke-width="1" opacity="0.1450980392156863" d="M 22.5 418 L 23 420.5 L 22 420.5 L 22.5 418 Z " /><path fill="rgb(81,62,79)" stroke="rgb(81,62,79)" stroke-width="1" opacity="0.1450980392156863" d="M 371.5 418 L 372 421.5 L 371 421.5 L 371.5 418 Z " /><path fill="rgb(81,62,79)" stroke="rgb(81,62,79)" stroke-width="1" opacity="0.1450980392156863" d="M 391.5 421 L 392 423.5 L 391 423.5 L 391.5 421 Z " /><path fill="rgb(81,62,79)" stroke="rgb(81,62,79)" stroke-width="1" opacity="0.1450980392156863" d="M 23.5 422 L 26 433.5 L 25 433.5 L 23.5 422 Z " /><path fill="rgb(81,62,79)" stroke="rgb(81,62,79)" stroke-width="1" opacity="0.1450980392156863" d="M 390.5 426 L 391 430.5 L 389.5 435 L 389 431.5 L 390.5 426 Z " /><path fill="rgb(81,62,79)" stroke="rgb(81,62,79)" stroke-width="1" opacity="0.1450980392156863" d="M 369.5 427 L 370 430.5 L 365.5 450 L 365 445.5 L 369.5 427 Z " /><path fill="rgb(81,62,79)" stroke="rgb(81,62,79)" stroke-width="1" opacity="0.1450980392156863" d="M 26.5 435 L 27 437.5 L 26 437.5 L 26.5 435 Z " /><path fill="rgb(81,62,79)" stroke="rgb(81,62,79)" stroke-width="1" opacity="0.1450980392156863" d="M 388.5 436 L 389 439.5 L 388 439.5 L 388.5 436 Z " /><path fill="rgb(81,62,79)" stroke="rgb(81,62,79)" stroke-width="1" opacity="0.1450980392156863" d="M 26.5 439 Q 29.1 438.2 28 441.5 L 27 441.5 L 26.5 439 Z " /><path fill="rgb(81,62,79)" stroke="rgb(81,62,79)" stroke-width="1" opacity="0.1450980392156863" d="M 48.5 439 L 51 446.5 L 51 450.5 L 50 450.5 L 48.5 439 Z " /><path fill="rgb(81,62,79)" stroke="rgb(81,62,79)" stroke-width="1" opacity="0.1450980392156863" d="M 387.5 441 L 388 443.5 L 387 443.5 L 387.5 441 Z " /><path fill="rgb(81,62,79)" stroke="rgb(81,62,79)" stroke-width="1" opacity="0.1450980392156863" d="M 27.5 443 Q 30.1 442.2 29 445.5 L 28 445.5 L 27.5 443 Z " /><path fill="rgb(81,62,79)" stroke="rgb(81,62,79)" stroke-width="1" opacity="0.1450980392156863" d="M 386.5 445 L 387 448.5 L 386 448.5 L 386.5 445 Z " /><path fill="rgb(81,62,79)" stroke="rgb(81,62,79)" stroke-width="1" opacity="0.1450980392156863" d="M 28.5 447 Q 31.1 446.2 30 449.5 L 29 449.5 L 28.5 447 Z " /><path fill="rgb(81,62,79)" stroke="rgb(81,62,79)" stroke-width="1" opacity="0.1450980392156863" d="M 385.5 450 L 386 454.5 L 384.5 458 L 384 455.5 L 385.5 450 Z " /><path fill="rgb(81,62,79)" stroke="rgb(81,62,79)" stroke-width="1" opacity="0.1450980392156863" d="M 364.5 451 L 365 454.5 L 364 454.5 L 364.5 451 Z " /><path fill="rgb(81,62,79)" stroke="rgb(81,62,79)" stroke-width="1" opacity="0.1450980392156863" d="M 30.5 452 L 31 454.5 L 30 454.5 L 30.5 452 Z " /><path fill="rgb(81,62,79)" stroke="rgb(81,62,79)" stroke-width="1" opacity="0.1450980392156863" d="M 51.5 452 L 53 459.5 L 52 459.5 L 51.5 452 Z " /><path fill="rgb(81,62,79)" stroke="rgb(81,62,79)" stroke-width="1" opacity="0.1450980392156863" d="M 30.5 456 Q 33.1 455.2 32 458.5 L 31 458.5 L 30.5 456 Z " /><path fill="rgb(81,62,79)" stroke="rgb(81,62,79)" stroke-width="1" opacity="0.1450980392156863" d="M 363.5 456 L 364 459.5 L 363 459.5 L 363.5 456 Z " /><path fill="rgb(81,62,79)" stroke="rgb(81,62,79)" stroke-width="1" opacity="0.1450980392156863" d="M 383.5 459 L 384 462.5 L 383 462.5 L 383.5 459 Z " /><path fill="rgb(81,62,79)" stroke="rgb(81,62,79)" stroke-width="1" opacity="0.1450980392156863" d="M 31.5 460 Q 34.1 459.2 33 462.5 L 32 462.5 L 31.5 460 Z " /><path fill="rgb(81,62,79)" stroke="rgb(81,62,79)" stroke-width="1" opacity="0.1450980392156863" d="M 53.5 461 L 54 463.5 L 53 463.5 L 53.5 461 Z " /><path fill="rgb(81,62,79)" stroke="rgb(81,62,79)" stroke-width="1" opacity="0.1450980392156863" d="M 362.5 461 L 363 465 L 361 464.5 L 362.5 461 Z " /><path fill="rgb(81,62,79)" stroke="rgb(81,62,79)" stroke-width="1" opacity="0.1450980392156863" d="M 32.5 464 Q 35.5 463.1 34 467.5 L 36 475.5 L 35 475.5 L 32.5 464 Z " /><path fill="rgb(81,62,79)" stroke="rgb(81,62,79)" stroke-width="1" opacity="0.1450980392156863" d="M 382.5 464 L 383 467.5 L 382 467.5 L 382.5 464 Z " /><path fill="rgb(81,62,79)" stroke="rgb(81,62,79)" stroke-width="1" opacity="0.1450980392156863" d="M 54.5 465 L 56 468.5 L 54 467.5 L 54.5 465 Z " /><path fill="rgb(81,62,79)" stroke="rgb(81,62,79)" stroke-width="1" opacity="0.1450980392156863" d="M 361.5 466 L 362 468.5 L 361 468.5 L 361.5 466 Z " /><path fill="rgb(81,62,79)" stroke="rgb(81,62,79)" stroke-width="1" opacity="0.1450980392156863" d="M 381.5 469 L 382 472.5 L 381 472.5 L 381.5 469 Z " /><path fill="rgb(81,62,79)" stroke="rgb(81,62,79)" stroke-width="1" opacity="0.1450980392156863" d="M 360.5 470 L 361 473.5 L 359 484 L 357 483.5 L 360.5 470 Z " /><path fill="rgb(81,62,79)" stroke="rgb(81,62,79)" stroke-width="1" opacity="0.1450980392156863" d="M 380.5 474 L 381 477.5 L 379.5 482 L 379 478.5 L 380.5 474 Z " /><path fill="rgb(81,62,79)" stroke="rgb(81,62,79)" stroke-width="1" opacity="0.1450980392156863" d="M 35.5 477 Q 38.5 476.1 37 480.5 L 39 487.5 L 38 487.5 L 35.5 477 Z " /><path fill="rgb(81,62,79)" stroke="rgb(81,62,79)" stroke-width="1" opacity="0.1450980392156863" d="M 57.5 477 L 59 484.5 L 58 484.5 L 57.5 477 Z " /><path fill="rgb(81,62,79)" stroke="rgb(81,62,79)" stroke-width="1" opacity="0.1450980392156863" d="M 378.5 483 L 379 486.5 L 378 486.5 L 378.5 483 Z " /><path fill="rgb(81,62,79)" stroke="rgb(81,62,79)" stroke-width="1" opacity="0.1450980392156863" d="M 357.5 485 L 358 487.5 L 354.5 503 L 354 498.5 L 357.5 485 Z " /><path fill="rgb(81,62,79)" stroke="rgb(81,62,79)" stroke-width="1" opacity="0.1450980392156863" d="M 59.5 486 L 61 492.5 L 60 492.5 L 59.5 486 Z " /><path fill="rgb(81,62,79)" stroke="rgb(81,62,79)" stroke-width="1" opacity="0.1450980392156863" d="M 377.5 488 L 378 491.5 L 377 491.5 L 377.5 488 Z " /><path fill="rgb(81,62,79)" stroke="rgb(81,62,79)" stroke-width="1" opacity="0.1450980392156863" d="M 39.5 490 L 40 492.5 L 39 492.5 L 39.5 490 Z " /><path fill="rgb(81,62,79)" stroke="rgb(81,62,79)" stroke-width="1" opacity="0.1450980392156863" d="M 376.5 493 L 377 495.5 L 376 495.5 L 376.5 493 Z " /><path fill="rgb(81,62,79)" stroke="rgb(81,62,79)" stroke-width="1" opacity="0.1450980392156863" d="M 61.5 494 L 63 501.5 L 62 501.5 L 61.5 494 Z " /><path fill="rgb(81,62,79)" stroke="rgb(81,62,79)" stroke-width="1" opacity="0.1450980392156863" d="M 40.5 497 L 42 498.5 L 45 513.5 L 44 513.5 L 40.5 497 Z " /><path fill="rgb(81,62,79)" stroke="rgb(81,62,79)" stroke-width="1" opacity="0.1450980392156863" d="M 375.5 498 L 376 501.5 L 374.5 506 L 374 502.5 L 375.5 498 Z " /><path fill="rgb(81,62,79)" stroke="rgb(81,62,79)" stroke-width="1" opacity="0.1450980392156863" d="M 353.5 504 L 354 506.5 L 353 506.5 L 353.5 504 Z " /><path fill="rgb(81,62,79)" stroke="rgb(81,62,79)" stroke-width="1" opacity="0.1450980392156863" d="M 64.5 507 L 65 509.5 L 64 509.5 L 64.5 507 Z " /><path fill="rgb(81,62,79)" stroke="rgb(81,62,79)" stroke-width="1" opacity="0.1450980392156863" d="M 373.5 507 L 374 511.5 L 372.5 516 L 372 512.5 L 373.5 507 Z " /><path fill="rgb(81,62,79)" stroke="rgb(81,62,79)" stroke-width="1" opacity="0.1450980392156863" d="M 352.5 508 L 353 511.5 L 352 511.5 L 352.5 508 Z " /><path fill="rgb(81,62,79)" stroke="rgb(81,62,79)" stroke-width="1" opacity="0.1450980392156863" d="M 65.5 511 L 66 513.5 L 65 513.5 L 65.5 511 Z " /><path fill="rgb(81,62,79)" stroke="rgb(81,62,79)" stroke-width="1" opacity="0.1450980392156863" d="M 351.5 513 L 352 516.5 L 350 525.5 L 348.5 527 L 349 525.5 L 351.5 513 Z " /><path fill="rgb(81,62,79)" stroke="rgb(81,62,79)" stroke-width="1" opacity="0.1450980392156863" d="M 45.5 515 L 46 517.5 L 45 517.5 L 45.5 515 Z " /><path fill="rgb(81,62,79)" stroke="rgb(81,62,79)" stroke-width="1" opacity="0.1450980392156863" d="M 66.5 515 L 68 522.5 L 67 522.5 L 66.5 515 Z " /><path fill="rgb(81,62,79)" stroke="rgb(81,62,79)" stroke-width="1" opacity="0.1450980392156863" d="M 371.5 517 L 372 520.5 L 370.5 525 L 370 521.5 L 371.5 517 Z " /><path fill="rgb(81,62,79)" stroke="rgb(81,62,79)" stroke-width="1" opacity="0.1450980392156863" d="M 46.5 519 L 49 529.5 L 48 529.5 L 46.5 519 Z " /><path fill="rgb(81,62,79)" stroke="rgb(81,62,79)" stroke-width="1" opacity="0.1450980392156863" d="M 68.5 524 L 69 526.5 L 68 526.5 L 68.5 524 Z " /><path fill="rgb(81,62,79)" stroke="rgb(81,62,79)" stroke-width="1" opacity="0.1450980392156863" d="M 369.5 526 L 370 530.5 L 368.5 535 L 368 531.5 L 369.5 526 Z " /><path fill="rgb(81,62,79)" stroke="rgb(81,62,79)" stroke-width="1" opacity="0.1450980392156863" d="M 69.5 528 L 70 530.5 L 69 530.5 L 69.5 528 Z " /><path fill="rgb(81,62,79)" stroke="rgb(81,62,79)" stroke-width="1" opacity="0.1450980392156863" d="M 348.5 528 L 349 530.5 L 348 530.5 L 348.5 528 Z " /><path fill="rgb(81,62,79)" stroke="rgb(81,62,79)" stroke-width="1" opacity="0.1450980392156863" d="M 49.5 532 L 50 534.5 L 49 534.5 L 49.5 532 Z " /><path fill="rgb(81,62,79)" stroke="rgb(81,62,79)" stroke-width="1" opacity="0.1450980392156863" d="M 70.5 532 L 71 535.5 L 70 535.5 L 70.5 532 Z " /><path fill="rgb(81,62,79)" stroke="rgb(81,62,79)" stroke-width="1" opacity="0.1450980392156863" d="M 347.5 532 L 348 535.5 L 346.5 541 L 346 536.5 L 347.5 532 Z " /><path fill="rgb(81,62,79)" stroke="rgb(81,62,79)" stroke-width="1" opacity="0.1450980392156863" d="M 50.5 536 L 51 538.5 L 50 538.5 L 50.5 536 Z " /><path fill="rgb(81,62,79)" stroke="rgb(81,62,79)" stroke-width="1" opacity="0.1450980392156863" d="M 367.5 536 L 368 539.5 L 364.5 554 L 364 550.5 L 367.5 536 Z " /><path fill="rgb(81,62,79)" stroke="rgb(81,62,79)" stroke-width="1" opacity="0.1450980392156863" d="M 71.5 537 L 72 539.5 L 71 539.5 L 71.5 537 Z " /><path fill="rgb(81,62,79)" stroke="rgb(81,62,79)" stroke-width="1" opacity="0.1450980392156863" d="M 50.5 540 Q 53.1 539.2 52 542.5 L 51 542.5 L 50.5 540 Z " /><path fill="rgb(81,62,79)" stroke="rgb(81,62,79)" stroke-width="1" opacity="0.1450980392156863" d="M 72.5 541 L 74 547.5 L 73 547.5 L 72.5 541 Z " /><path fill="rgb(81,62,79)" stroke="rgb(81,62,79)" stroke-width="1" opacity="0.1450980392156863" d="M 345.5 542 L 346 545.5 L 344.5 550 L 344 546.5 L 345.5 542 Z " /><path fill="rgb(81,62,79)" stroke="rgb(81,62,79)" stroke-width="1" opacity="0.1450980392156863" d="M 51.5 544 Q 54.5 543.1 53 547.5 L 52 547.5 L 51.5 544 Z " /><path fill="rgb(81,62,79)" stroke="rgb(81,62,79)" stroke-width="1" opacity="0.1450980392156863" d="M 53.5 549 L 55 555.5 L 54 555.5 L 53.5 549 Z " /><path fill="rgb(81,62,79)" stroke="rgb(81,62,79)" stroke-width="1" opacity="0.1450980392156863" d="M 74.5 549 L 76 552.5 L 74 553 L 74.5 549 Z " /><path fill="rgb(81,62,79)" stroke="rgb(81,62,79)" stroke-width="1" opacity="0.1450980392156863" d="M 343.5 551 L 344 554.5 L 343 554.5 L 343.5 551 Z " /><path fill="rgb(81,62,79)" stroke="rgb(81,62,79)" stroke-width="1" opacity="0.1450980392156863" d="M 75.5 554 L 76 556.5 L 75 556.5 L 75.5 554 Z " /><path fill="rgb(81,62,79)" stroke="rgb(81,62,79)" stroke-width="1" opacity="0.1450980392156863" d="M 363.5 555 L 364 558.5 L 362.5 563 L 362 559.5 L 363.5 555 Z " /><path fill="rgb(81,62,79)" stroke="rgb(81,62,79)" stroke-width="1" opacity="0.1450980392156863" d="M 342.5 556 L 343 559.5 L 342 559.5 L 342.5 556 Z " /><path fill="rgb(81,62,79)" stroke="rgb(81,62,79)" stroke-width="1" opacity="0.1450980392156863" d="M 55.5 557 L 56 559.5 L 55 559.5 L 55.5 557 Z " /><path fill="rgb(81,62,79)" stroke="rgb(81,62,79)" stroke-width="1" opacity="0.1450980392156863" d="M 76.5 558 L 77 560.5 L 76 560.5 L 76.5 558 Z " /><path fill="rgb(81,62,79)" stroke="rgb(81,62,79)" stroke-width="1" opacity="0.1450980392156863" d="M 56.5 561 L 58 568.5 L 57 568.5 L 56.5 561 Z " /><path fill="rgb(81,62,79)" stroke="rgb(81,62,79)" stroke-width="1" opacity="0.1450980392156863" d="M 341.5 561 L 342 564.5 L 341 564.5 L 341.5 561 Z " /><path fill="rgb(81,62,79)" stroke="rgb(81,62,79)" stroke-width="1" opacity="0.1450980392156863" d="M 77.5 562 L 78 564.5 L 77 564.5 L 77.5 562 Z " /><path fill="rgb(81,62,79)" stroke="rgb(81,62,79)" stroke-width="1" opacity="0.1450980392156863" d="M 361.5 564 L 362 567.5 L 361 567.5 L 361.5 564 Z " /><path fill="rgb(81,62,79)" stroke="rgb(81,62,79)" stroke-width="1" opacity="0.1450980392156863" d="M 78.5 566 L 81 573.5 L 81 577.5 L 80 577.5 L 78.5 566 Z " /><path fill="rgb(81,62,79)" stroke="rgb(81,62,79)" stroke-width="1" opacity="0.1450980392156863" d="M 340.5 566 L 341 569.5 L 338.5 575 L 339 573.5 L 340.5 566 Z " /><path fill="rgb(81,62,79)" stroke="rgb(81,62,79)" stroke-width="1" opacity="0.1450980392156863" d="M 360.5 569 L 361 572.5 L 360 572.5 L 360.5 569 Z " /><path fill="rgb(81,62,79)" stroke="rgb(81,62,79)" stroke-width="1" opacity="0.1450980392156863" d="M 58.5 570 L 59 572.5 L 58 572.5 L 58.5 570 Z " /><path fill="rgb(81,62,79)" stroke="rgb(81,62,79)" stroke-width="1" opacity="0.1450980392156863" d="M 59.5 574 L 62 585.5 L 61 585.5 L 59.5 574 Z " /><path fill="rgb(81,62,79)" stroke="rgb(81,62,79)" stroke-width="1" opacity="0.1450980392156863" d="M 359.5 574 L 360 577.5 L 358.5 582 L 358 578.5 L 359.5 574 Z " /><path fill="rgb(81,62,79)" stroke="rgb(81,62,79)" stroke-width="1" opacity="0.1450980392156863" d="M 338.5 576 L 339 579 L 337 578.5 L 338.5 576 Z " /><path fill="rgb(81,62,79)" stroke="rgb(81,62,79)" stroke-width="1" opacity="0.1450980392156863" d="M 81.5 579 L 83 585.5 L 82 585.5 L 81.5 579 Z " /><path fill="rgb(81,62,79)" stroke="rgb(81,62,79)" stroke-width="1" opacity="0.1450980392156863" d="M 337.5 580 L 338 584 L 336 583.5 L 337.5 580 Z " /><path fill="rgb(81,62,79)" stroke="rgb(81,62,79)" stroke-width="1" opacity="0.1450980392156863" d="M 357.5 583 L 358 586.5 L 357 586.5 L 357.5 583 Z " /><path fill="rgb(81,62,79)" stroke="rgb(81,62,79)" stroke-width="1" opacity="0.1450980392156863" d="M 336.5 585 L 337 587.5 L 336 587.5 L 336.5 585 Z " /><path fill="rgb(81,62,79)" stroke="rgb(81,62,79)" stroke-width="1" opacity="0.1450980392156863" d="M 62.5 587 L 64 593.5 L 63 593.5 L 62.5 587 Z " /><path fill="rgb(81,62,79)" stroke="rgb(81,62,79)" stroke-width="1" opacity="0.1450980392156863" d="M 83.5 587 L 85 594.5 L 84 594.5 L 83.5 587 Z " /><path fill="rgb(81,62,79)" stroke="rgb(81,62,79)" stroke-width="1" opacity="0.1450980392156863" d="M 356.5 588 L 357 591.5 L 356 591.5 L 356.5 588 Z " /><path fill="rgb(81,62,79)" stroke="rgb(81,62,79)" stroke-width="1" opacity="0.1450980392156863" d="M 335.5 590 L 336 592.5 L 335 598 L 333 597.5 L 335.5 590 Z " /><path fill="rgb(81,62,79)" stroke="rgb(81,62,79)" stroke-width="1" opacity="0.1450980392156863" d="M 355.5 593 L 356 596.5 L 355 596.5 L 355.5 593 Z " /><path fill="rgb(81,62,79)" stroke="rgb(81,62,79)" stroke-width="1" opacity="0.1450980392156863" d="M 63.5 595 Q 66.5 594.1 65 598.5 L 66 602.5 L 65 602.5 L 63.5 595 Z " /><path fill="rgb(81,62,79)" stroke="rgb(81,62,79)" stroke-width="1" opacity="0.1450980392156863" d="M 85.5 596 L 87 602.5 L 86 602.5 L 85.5 596 Z " /><path fill="rgb(81,62,79)" stroke="rgb(81,62,79)" stroke-width="1" opacity="0.1450980392156863" d="M 354.5 598 L 355 600.5 L 354 600.5 L 354.5 598 Z " /><path fill="rgb(81,62,79)" stroke="rgb(81,62,79)" stroke-width="1" opacity="0.1450980392156863" d="M 333.5 600 L 334 601.5 L 332 602.5 L 333.5 600 Z " /><path fill="rgb(81,62,79)" stroke="rgb(81,62,79)" stroke-width="1" opacity="0.1450980392156863" d="M 353.5 602 L 354 606.5 L 352.5 611 L 352 607.5 L 353.5 602 Z " /><path fill="rgb(81,62,79)" stroke="rgb(81,62,79)" stroke-width="1" opacity="0.1450980392156863" d="M 66.5 604 L 67 606.5 L 66 606.5 L 66.5 604 Z " /><path fill="rgb(81,62,79)" stroke="rgb(81,62,79)" stroke-width="1" opacity="0.1450980392156863" d="M 87.5 604 L 88 606.5 L 87 606.5 L 87.5 604 Z " /><path fill="rgb(81,62,79)" stroke="rgb(81,62,79)" stroke-width="1" opacity="0.1450980392156863" d="M 332.5 604 L 333 606.5 L 330 621.5 L 327.5 624 L 322 621.5 L 323.5 621 L 327.5 623 L 329 621.5 L 329 616.5 L 332.5 604 Z " /><path fill="rgb(81,62,79)" stroke="rgb(81,62,79)" stroke-width="1" opacity="0.1450980392156863" d="M 67.5 608 L 68 610.5 L 67 610.5 L 67.5 608 Z " /><path fill="rgb(81,62,79)" stroke="rgb(81,62,79)" stroke-width="1" opacity="0.1450980392156863" d="M 88.5 608 L 89 611.5 L 88 611.5 L 88.5 608 Z " /><path fill="rgb(81,62,79)" stroke="rgb(81,62,79)" stroke-width="1" opacity="0.1450980392156863" d="M 68.5 612 L 70 618.5 L 69 618.5 L 68.5 612 Z " /><path fill="rgb(81,62,79)" stroke="rgb(81,62,79)" stroke-width="1" opacity="0.1450980392156863" d="M 351.5 612 L 352 614.5 L 351 614.5 L 351.5 612 Z " /><path fill="rgb(81,62,79)" stroke="rgb(81,62,79)" stroke-width="1" opacity="0.1450980392156863" d="M 89.5 613 L 90 615.5 L 89 615.5 L 89.5 613 Z " /><path fill="rgb(81,62,79)" stroke="rgb(81,62,79)" stroke-width="1" opacity="0.1450980392156863" d="M 90.5 617 L 91 619.5 L 90 619.5 L 90.5 617 Z " /><path fill="rgb(81,62,79)" stroke="rgb(81,62,79)" stroke-width="1" opacity="0.1450980392156863" d="M 350.5 617 L 351 619.5 L 350 619.5 L 350.5 617 Z " /><path fill="rgb(81,62,79)" stroke="rgb(81,62,79)" stroke-width="1" opacity="0.1450980392156863" d="M 101.5 619 L 105 619.5 L 101.5 620 L 101.5 619 Z " /><path fill="rgb(81,62,79)" stroke="rgb(81,62,79)" stroke-width="1" opacity="0.1450980392156863" d="M 150.5 619 L 161 619.5 L 150.5 620 L 150.5 619 Z " /><path fill="rgb(81,62,79)" stroke="rgb(81,62,79)" stroke-width="1" opacity="0.1450980392156863" d="M 182.5 619 L 187 619.5 L 182.5 620 L 182.5 619 Z " /><path fill="rgb(81,62,79)" stroke="rgb(81,62,79)" stroke-width="1" opacity="0.1450980392156863" d="M 193.5 619 L 206 619.5 L 193.5 620 L 193.5 619 Z " /><path fill="rgb(81,62,79)" stroke="rgb(81,62,79)" stroke-width="1" opacity="0.1450980392156863" d="M 207.5 619 L 312 619.5 L 207.5 620 L 207.5 619 Z " /><path fill="rgb(81,62,79)" stroke="rgb(81,62,79)" stroke-width="1" opacity="0.1450980392156863" d="M 70.5 620 L 72 627.5 L 71 627.5 L 70.5 620 Z " /><path fill="rgb(81,62,79)" stroke="rgb(81,62,79)" stroke-width="1" opacity="0.1450980392156863" d="M 97.5 620 L 100 620.5 L 96.5 622 L 97.5 620 Z " /><path fill="rgb(81,62,79)" stroke="rgb(81,62,79)" stroke-width="1" opacity="0.1450980392156863" d="M 317.5 620 L 321 620.5 L 317.5 621 L 317.5 620 Z " /><path fill="rgb(81,62,79)" stroke="rgb(81,62,79)" stroke-width="1" opacity="0.1450980392156863" d="M 91.5 621 L 92.5 623 L 94.5 622 L 94.5 623 L 91 624 L 91.5 621 Z " /><path fill="rgb(81,62,79)" stroke="rgb(81,62,79)" stroke-width="1" opacity="0.1450980392156863" d="M 348.5 626 L 349 629.5 L 348 629.5 L 348.5 626 Z " /><path fill="rgb(81,62,79)" stroke="rgb(81,62,79)" stroke-width="1" opacity="0.1450980392156863" d="M 347.5 631 L 348 634.5 L 347 634.5 L 347.5 631 Z " /><path fill="rgb(81,62,79)" stroke="rgb(81,62,79)" stroke-width="1" opacity="0.1450980392156863" d="M 73.5 633 L 74 635.5 L 73 635.5 L 73.5 633 Z " /><path fill="rgb(81,62,79)" stroke="rgb(81,62,79)" stroke-width="1" opacity="0.1450980392156863" d="M 346.5 636 L 347 639.5 L 345.5 644 L 345 640.5 L 346.5 636 Z " /><path fill="rgb(81,62,79)" stroke="rgb(81,62,79)" stroke-width="1" opacity="0.1450980392156863" d="M 74.5 637 L 75 639.5 L 74 639.5 L 74.5 637 Z " /><path fill="rgb(81,62,79)" stroke="rgb(81,62,79)" stroke-width="1" opacity="0.1450980392156863" d="M 104.5 639 L 107 639.5 L 104.5 640 L 104.5 639 Z " /><path fill="rgb(81,62,79)" stroke="rgb(81,62,79)" stroke-width="1" opacity="0.1450980392156863" d="M 149.5 639 L 154 639.5 L 149.5 640 L 149.5 639 Z " /><path fill="rgb(81,62,79)" stroke="rgb(81,62,79)" stroke-width="1" opacity="0.1450980392156863" d="M 160.5 639 L 179 639.5 L 160.5 640 L 160.5 639 Z " /><path fill="rgb(81,62,79)" stroke="rgb(81,62,79)" stroke-width="1" opacity="0.1450980392156863" d="M 197.5 639 L 236 639.5 L 197.5 640 L 197.5 639 Z " /><path fill="rgb(81,62,79)" stroke="rgb(81,62,79)" stroke-width="1" opacity="0.1450980392156863" d="M 244.5 639 L 272 639.5 L 244.5 640 L 244.5 639 Z " /><path fill="rgb(81,62,79)" stroke="rgb(81,62,79)" stroke-width="1" opacity="0.1450980392156863" d="M 75.5 641 L 76 643.5 L 75 643.5 L 75.5 641 Z " /><path fill="rgb(81,62,79)" stroke="rgb(81,62,79)" stroke-width="1" opacity="0.1450980392156863" d="M 101.5 641 L 99.5 644 L 101.5 641 Z " /><path fill="rgb(81,62,79)" stroke="rgb(81,62,79)" stroke-width="1" opacity="0.1450980392156863" d="M 318.5 641 L 321.5 645 L 318.5 641 Z " /><path fill="rgb(81,62,79)" stroke="rgb(81,62,79)" stroke-width="1" opacity="0.1450980392156863" d="M 344.5 645 L 345 647.5 L 344 647.5 L 344.5 645 Z " /><path fill="rgb(81,62,79)" stroke="rgb(81,62,79)" stroke-width="1" opacity="0.1450980392156863" d="M 97 647 L 99 647.5 L 98 648.5 L 97.5 682 L 97 647 Z " /><path fill="rgb(81,62,79)" stroke="rgb(81,62,79)" stroke-width="1" opacity="0.1450980392156863" d="M 323.5 649 L 324 663.5 L 322.5 668 L 322 664.5 L 323 663.5 L 323.5 649 Z " /><path fill="rgb(81,62,79)" stroke="rgb(81,62,79)" stroke-width="1" opacity="0.1450980392156863" d="M 77.5 650 L 78 683.5 L 77 683.5 L 77.5 650 Z " /><path fill="rgb(81,62,79)" stroke="rgb(81,62,79)" stroke-width="1" opacity="0.1450980392156863" d="M 343.5 651 L 344 666.5 L 343 666.5 L 343.5 651 Z " /><path fill="rgb(81,62,79)" stroke="rgb(81,62,79)" stroke-width="1" opacity="0.1450980392156863" d="M 322.5 670 L 323 679.5 L 322 679.5 L 322.5 670 Z " /><path fill="rgb(81,62,79)" stroke="rgb(81,62,79)" stroke-width="1" opacity="0.1450980392156863" d="M 322.5 681 L 323 683.5 L 322 683.5 L 322.5 681 Z " /><path fill="rgb(81,62,79)" stroke="rgb(81,62,79)" stroke-width="1" opacity="0.1450980392156863" d="M 342.5 684 L 343 687.5 L 342 687.5 L 342.5 684 Z " /><path fill="rgb(81,62,79)" stroke="rgb(81,62,79)" stroke-width="1" opacity="0.1450980392156863" d="M 321.5 685 L 320.5 687 L 321.5 685 Z " /><path fill="rgb(81,62,79)" stroke="rgb(81,62,79)" stroke-width="1" opacity="0.1450980392156863" d="M 99.5 686 L 106 690.5 L 104.5 691 L 99.5 686 Z " /><path fill="rgb(81,62,79)" stroke="rgb(81,62,79)" stroke-width="1" opacity="0.1450980392156863" d="M 318.5 688 L 317.5 690 L 316 689.5 L 318.5 688 Z " /><path fill="rgb(81,62,79)" stroke="rgb(81,62,79)" stroke-width="1" opacity="0.1450980392156863" d="M 210.5 690 L 315 690.5 L 210.5 691 L 210.5 690 Z " /><path fill="rgb(81,62,79)" stroke="rgb(81,62,79)" stroke-width="1" opacity="0.1450980392156863" d="M 340.5 692 L 341 693.5 L 339 694.5 L 340.5 692 Z " /><path fill="rgb(81,62,79)" stroke="rgb(81,62,79)" stroke-width="1" opacity="0.1450980392156863" d="M 81.5 695 L 85 699.5 L 82 697.5 L 81.5 695 Z " /><path fill="rgb(81,62,79)" stroke="rgb(81,62,79)" stroke-width="1" opacity="0.1450980392156863" d="M 338.5 696 L 337 698.5 L 333.5 703 L 336 699.5 L 338.5 696 Z " /><path fill="rgb(81,62,79)" stroke="rgb(81,62,79)" stroke-width="1" opacity="0.1450980392156863" d="M 88.5 703 L 90.5 706 L 88.5 703 Z " /><path fill="rgb(81,62,79)" stroke="rgb(81,62,79)" stroke-width="1" opacity="0.1450980392156863" d="M 110.5 710 L 131 710.5 L 110.5 711 L 110.5 710 Z " /><path fill="rgb(81,62,79)" stroke="rgb(81,62,79)" stroke-width="1" opacity="0.1450980392156863" d="M 211.5 710 L 214 710.5 L 211.5 711 L 211.5 710 Z " /><path fill="rgb(81,62,79)" stroke="rgb(81,62,79)" stroke-width="1" opacity="0.1450980392156863" d="M 216.5 710 L 229 710.5 L 216.5 711 L 216.5 710 Z " /><path fill="rgb(81,62,79)" stroke="rgb(81,62,79)" stroke-width="1" opacity="0.1450980392156863" d="M 266.5 710 L 288 710.5 L 266.5 711 L 266.5 710 Z " /><path fill="rgb(81,62,79)" stroke="rgb(81,62,79)" stroke-width="1" opacity="0.1450980392156863" d="M 297.5 710 L 307 710.5 L 297.5 711 L 297.5 710 Z " /><path fill="rgb(26,23,23)" stroke="rgb(26,23,23)" stroke-width="1" opacity="0.9450980392156862" d="M 199.5 2 L 219.5 2 L 224.5 4 L 226 3.5 L 225.5 5 L 228.5 4 L 235.5 8 L 238.5 8 L 251 16.5 L 255.5 22 L 257 22.5 L 256.5 24 Q 259.8 22.9 259 25.5 L 258.5 27 L 261 28.5 L 267 38.5 L 267 41 L 269 41.5 L 268 43.5 L 269 47 L 271 47.5 L 270 50.5 L 273 57.5 L 272 60.5 L 272 72.5 L 273 74.5 L 271 76.5 L 270 82.5 L 270.5 84 Q 268.3 83.3 269 85.5 L 270 87.5 L 268 87.5 L 266 93.5 L 266.5 95 L 265 94.5 L 266 96.5 L 263 98.5 L 259 104.5 L 259.5 106 Q 256.2 104.9 257 107.5 L 254.5 111 L 253 110.5 L 248.5 116 L 247 116.5 L 247.5 118 L 245.5 117 L 244.5 120 L 242.5 120 L 241 120.5 L 241.5 122 L 239.5 122 L 234 124 L 233.5 126 L 229.5 126 L 228 126.5 L 228.5 128 L 226.5 127 Q 225 130.5 223.5 128 Q 220.2 126.9 221 129.5 L 219.5 129 L 212 129.5 L 212.5 131 L 204.5 131 L 202.5 129 L 197.5 128 L 196.5 130 L 193.5 128 Q 192 130.5 190.5 127 L 188.5 128 L 188 126 L 184.5 125 L 183 125.5 Q 183.8 123.3 181.5 124 L 178.5 122 L 177 122.5 L 177.5 121 L 175.5 122 L 175.5 120 L 170.5 117 L 169 117.5 Q 170.1 114.2 167.5 115 L 162 108 Q 159 109 160 106 L 157.5 106 L 156.5 101 L 154 99.5 L 147 86.5 L 148 84.5 L 144 73.5 L 145 72.5 L 145 58.5 L 145 56.5 L 147 49.5 L 146 47.5 L 153 34.5 L 152 33.5 L 155 30.5 Q 154.3 27.9 157 29 L 157 27 L 158.5 27 L 158 25.5 Q 157.3 23.3 159.5 24 L 162.5 20 Q 163.8 22.3 165 19.5 L 167 15 Q 173 14 176.5 9 Q 178 11.5 179.5 8 L 192.5 3 L 194.5 4 L 199.5 2 Z M 201 19 L 187 24 L 185 27 L 184 26 L 181 30 L 180 29 L 173 36 L 174 37 Q 173 39 172 37 L 171 39 L 171 41 L 170 41 L 168 44 L 168 46 L 166 46 L 167 48 L 165 48 L 166 51 L 163 56 L 164 59 L 163 59 L 163 61 L 162 62 L 162 70 L 162 72 L 164 73 L 163 78 L 165 77 L 164 79 L 165 82 Q 164 84 167 83 L 167 86 Q 166 88 169 87 L 168 89 L 170 89 L 173 97 L 175 96 Q 177 97 175 99 Q 176 101 178 99 L 180 103 L 182 102 L 181 104 Q 188 109 200 111 L 202 111 L 203 112 L 215 112 L 217 112 L 220 111 L 222 111 L 232 106 L 238 101 L 240 101 Q 242 100 240 99 L 244 95 Q 246 96 245 92 L 247 92 L 250 86 L 250 84 L 252 84 L 253 79 Q 250 77 254 76 L 253 73 L 255 72 L 254 70 L 254 68 L 255 66 L 254 60 L 254 58 L 253 54 Q 254 50 252 51 Q 253 49 250 48 L 251 46 L 249 46 L 250 42 L 247 41 L 247 40 L 246 38 Q 235 23 214 19 L 204 19 L 203 20 L 201 19 Z " /><path fill="rgb(26,23,23)" stroke="rgb(26,23,23)" stroke-width="1" opacity="0.9450980392156862" d="M 393.5 29 L 397 29.5 L 393.5 30 L 393.5 29 Z " /><path fill="rgb(26,23,23)" stroke="rgb(26,23,23)" stroke-width="1" opacity="0.9450980392156862" d="M 370.5 42 L 369.5 44 L 370.5 42 Z " /><path fill="rgb(26,23,23)" stroke="rgb(26,23,23)" stroke-width="1" opacity="0.9450980392156862" d="M 360.5 47 L 359.5 49 L 360.5 47 Z " /><path fill="rgb(26,23,23)" stroke="rgb(26,23,23)" stroke-width="1" opacity="0.9450980392156862" d="M 352.5 54 L 351.5 56 L 352.5 54 Z " /><path fill="rgb(26,23,23)" stroke="rgb(26,23,23)" stroke-width="1" opacity="0.9450980392156862" d="M 382.5 54 L 381.5 56 L 382.5 54 Z " /><path fill="rgb(26,23,23)" stroke="rgb(26,23,23)" stroke-width="1" opacity="0.9450980392156862" d="M 375.5 60 L 374.5 62 L 375.5 60 Z " /><path fill="rgb(26,23,23)" stroke="rgb(26,23,23)" stroke-width="1" opacity="0.9450980392156862" d="M 344.5 61 L 343.5 63 L 344.5 61 Z " /><path fill="rgb(26,23,23)" stroke="rgb(26,23,23)" stroke-width="1" opacity="0.9450980392156862" d="M 335.5 69 L 334.5 71 L 335.5 69 Z " /><path fill="rgb(26,23,23)" stroke="rgb(26,23,23)" stroke-width="1" opacity="0.9450980392156862" d="M 359.5 74 L 358.5 76 L 359.5 74 Z " /><path fill="rgb(26,23,23)" stroke="rgb(26,23,23)" stroke-width="1" opacity="0.9450980392156862" d="M 404.5 75 L 403.5 77 L 404.5 75 Z " /><path fill="rgb(26,23,23)" stroke="rgb(26,23,23)" stroke-width="1" opacity="0.9450980392156862" d="M 325.5 78 L 324.5 80 L 325.5 78 Z " /><path fill="rgb(26,23,23)" stroke="rgb(26,23,23)" stroke-width="1" opacity="0.9450980392156862" d="M 396.5 79 L 391.5 85 L 396.5 79 Z " /><path fill="rgb(26,23,23)" stroke="rgb(26,23,23)" stroke-width="1" opacity="0.9450980392156862" d="M 351.5 81 L 350.5 83 L 351.5 81 Z " /><path fill="rgb(26,23,23)" stroke="rgb(26,23,23)" stroke-width="1" opacity="0.9450980392156862" d="M 315.5 87 L 312.5 91 L 315.5 87 Z " /><path fill="rgb(26,23,23)" stroke="rgb(26,23,23)" stroke-width="1" opacity="0.9450980392156862" d="M 305.5 96 L 303.5 99 L 305.5 96 Z " /><path fill="rgb(26,23,23)" stroke="rgb(26,23,23)" stroke-width="1" opacity="0.9450980392156862" d="M 403.5 100 L 401.5 103 L 403.5 100 Z " /><path fill="rgb(26,23,23)" stroke="rgb(26,23,23)" stroke-width="1" opacity="0.9450980392156862" d="M 296.5 104 L 294.5 107 L 296.5 104 Z " /><path fill="rgb(26,23,23)" stroke="rgb(26,23,23)" stroke-width="1" opacity="0.9450980392156862" d="M 371.5 105 L 364.5 113 L 371.5 105 Z " /><path fill="rgb(26,23,23)" stroke="rgb(26,23,23)" stroke-width="1" opacity="0.9450980392156862" d="M 321.5 108 L 320.5 110 L 321.5 108 Z " /><path fill="rgb(26,23,23)" stroke="rgb(26,23,23)" stroke-width="1" opacity="0.9450980392156862" d="M 287.5 112 L 286.5 114 L 287.5 112 Z " /><path fill="rgb(26,23,23)" stroke="rgb(26,23,23)" stroke-width="1" opacity="0.9450980392156862" d="M 312.5 116 L 310.5 119 L 312.5 116 Z " /><path fill="rgb(26,23,23)" stroke="rgb(26,23,23)" stroke-width="1" opacity="0.9450980392156862" d="M 302.5 125 L 301.5 127 L 302.5 125 Z " /><path fill="rgb(26,23,23)" stroke="rgb(26,23,23)" stroke-width="1" opacity="0.9450980392156862" d="M 270.5 127 L 269.5 129 L 270.5 127 Z " /><path fill="rgb(26,23,23)" stroke="rgb(26,23,23)" stroke-width="1" opacity="0.9450980392156862" d="M 373.5 131 L 372.5 133 L 373.5 131 Z " /><path fill="rgb(26,23,23)" stroke="rgb(26,23,23)" stroke-width="1" opacity="0.9450980392156862" d="M 293.5 133 L 292.5 135 L 293.5 133 Z " /><path fill="rgb(26,23,23)" stroke="rgb(26,23,23)" stroke-width="1" opacity="0.9450980392156862" d="M 286.5 139 L 285.5 141 L 286.5 139 Z " /><path fill="rgb(26,23,23)" stroke="rgb(26,23,23)" stroke-width="1" opacity="0.9450980392156862" d="M 336.5 141 L 329.5 149 L 336.5 141 Z " /><path fill="rgb(26,23,23)" stroke="rgb(26,23,23)" stroke-width="1" opacity="0.9450980392156862" d="M 229.5 143 L 232 143.5 L 229.5 144 L 229.5 143 Z " /><path fill="rgb(26,23,23)" stroke="rgb(26,23,23)" stroke-width="1" opacity="0.9450980392156862" d="M 216.5 144 L 219 144.5 L 216.5 145 L 216.5 144 Z " /><path fill="rgb(26,23,23)" stroke="rgb(26,23,23)" stroke-width="1" opacity="0.9450980392156862" d="M 279.5 145 L 278.5 147 L 279.5 145 Z " /><path fill="rgb(26,23,23)" stroke="rgb(26,23,23)" stroke-width="1" opacity="0.9450980392156862" d="M 190.5 146 L 193 146.5 L 190.5 147 L 190.5 146 Z " /><path fill="rgb(26,23,23)" stroke="rgb(26,23,23)" stroke-width="1" opacity="0.9450980392156862" d="M 272.5 151 L 271.5 153 L 272.5 151 Z " /><path fill="rgb(26,23,23)" stroke="rgb(26,23,23)" stroke-width="1" opacity="0.9450980392156862" d="M 142.5 157 L 143.5 159 L 142.5 157 Z " /><path fill="rgb(26,23,23)" stroke="rgb(26,23,23)" stroke-width="1" opacity="0.9450980392156862" d="M 247.5 161 L 250 161.5 L 247.5 162 L 247.5 161 Z " /><path fill="rgb(26,23,23)" stroke="rgb(26,23,23)" stroke-width="1" opacity="0.9450980392156862" d="M 233.5 162 L 236 162.5 L 233.5 163 L 233.5 162 Z " /><path fill="rgb(26,23,23)" stroke="rgb(26,23,23)" stroke-width="1" opacity="0.9450980392156862" d="M 221.5 163 L 224 163.5 L 221.5 164 L 221.5 163 Z " /><path fill="rgb(26,23,23)" stroke="rgb(26,23,23)" stroke-width="1" opacity="0.9450980392156862" d="M 122.5 166 L 121.5 168 L 122.5 166 Z " /><path fill="rgb(26,23,23)" stroke="rgb(26,23,23)" stroke-width="1" opacity="0.9450980392156862" d="M 131.5 184 L 130.5 186 L 131.5 184 Z " /><path fill="rgb(26,23,23)" stroke="rgb(26,23,23)" stroke-width="1" opacity="0.9450980392156862" d="M 313.5 188 L 314.5 190 L 313.5 188 Z " /><path fill="rgb(26,23,23)" stroke="rgb(26,23,23)" stroke-width="1" opacity="0.9450980392156862" d="M 285.5 194 L 284.5 196 L 285.5 194 Z " /><path fill="rgb(26,23,23)" stroke="rgb(26,23,23)" stroke-width="1" opacity="0.9450980392156862" d="M 301.5 200 L 300.5 202 L 301.5 200 Z " /><path fill="rgb(26,23,23)" stroke="rgb(26,23,23)" stroke-width="1" opacity="0.9450980392156862" d="M 93.5 224 L 94 241.5 L 93 241.5 L 93.5 224 Z " /><path fill="rgb(26,23,23)" stroke="rgb(26,23,23)" stroke-width="1" opacity="0.9450980392156862" d="M 293.5 238 L 294 258.5 L 293 258.5 L 293.5 238 Z " /><path fill="rgb(26,23,23)" stroke="rgb(26,23,23)" stroke-width="1" opacity="0.9450980392156862" d="M 112.5 244 L 113 265.5 L 112 265.5 L 112.5 244 Z " /><path fill="rgb(26,23,23)" stroke="rgb(26,23,23)" stroke-width="1" opacity="0.9450980392156862" d="M 274.5 261 L 275 282.5 L 274 282.5 L 274.5 261 Z " /><path fill="rgb(26,23,23)" stroke="rgb(26,23,23)" stroke-width="1" opacity="0.9450980392156862" d="M 36.5 392 L 179 392.5 L 36.5 393 L 36.5 392 Z " /><path fill="rgb(26,23,23)" stroke="rgb(26,23,23)" stroke-width="1" opacity="0.9450980392156862" d="M 180.5 392 L 209 392.5 L 180.5 393 L 180.5 392 Z " /><path fill="rgb(26,23,23)" stroke="rgb(26,23,23)" stroke-width="1" opacity="0.9450980392156862" d="M 106.5 619 L 109 619.5 L 106.5 620 L 106.5 619 Z " /><path fill="rgb(26,23,23)" stroke="rgb(26,23,23)" stroke-width="1" opacity="0.9450980392156862" d="M 323.5 664 L 324 680.5 L 323 680.5 L 323.5 664 Z " /><path fill="rgb(26,23,23)" stroke="rgb(26,23,23)" stroke-width="1" opacity="0.9450980392156862" d="M 319.5 692 L 318.5 694 L 319.5 692 Z " /><path fill="rgb(0,0,0)" stroke="rgb(0,0,0)" stroke-width="1" opacity="0.984313725490196" d="M 199.5 1 L 218 1.5 L 199.5 2 L 193.5 4 L 194.5 2 L 199.5 1 Z " /><path fill="rgb(0,0,0)" stroke="rgb(0,0,0)" stroke-width="1" opacity="0.984313725490196" d="M 224.5 3 L 227 4.5 L 225.5 5 L 224.5 3 Z " /><path fill="rgb(0,0,0)" stroke="rgb(0,0,0)" stroke-width="1" opacity="0.984313725490196" d="M 178.5 8 L 177.5 10 L 178.5 8 Z " /><path fill="rgb(0,0,0)" stroke="rgb(0,0,0)" stroke-width="1" opacity="0.984313725490196" d="M 243.5 11 L 244.5 13 L 243.5 11 Z " /><path fill="rgb(0,0,0)" stroke="rgb(0,0,0)" stroke-width="1" opacity="0.984313725490196" d="M 246.5 13 L 247.5 15 L 246.5 13 Z " /><path fill="rgb(0,0,0)" stroke="rgb(0,0,0)" stroke-width="1" opacity="0.984313725490196" d="M 166.5 16 L 165 18.5 L 163.5 21 L 163 19.5 L 166.5 16 Z " /><path fill="rgb(0,0,0)" stroke="rgb(0,0,0)" stroke-width="1" opacity="0.984313725490196" d="M 251.5 17 L 255.5 22 L 251.5 17 Z " /><path fill="rgb(0,0,0)" stroke="rgb(0,0,0)" stroke-width="1" opacity="0.984313725490196" d="M 203.5 19 L 214 19.5 L 203.5 20 L 203.5 19 Z " /><path fill="rgb(0,0,0)" stroke="rgb(0,0,0)" stroke-width="1" opacity="0.984313725490196" d="M 217.5 20 L 220 20.5 L 217.5 21 L 217.5 20 Z " /><path fill="rgb(0,0,0)" stroke="rgb(0,0,0)" stroke-width="1" opacity="0.984313725490196" d="M 249.5 20 L 250.5 22 L 249.5 20 Z " /><path fill="rgb(0,0,0)" stroke="rgb(0,0,0)" stroke-width="1" opacity="0.984313725490196" d="M 161.5 21 L 159.5 24 L 161.5 21 Z " /><path fill="rgb(0,0,0)" stroke="rgb(0,0,0)" stroke-width="1" opacity="0.984313725490196" d="M 190.5 22 L 192 22.5 L 189.5 24 L 190.5 22 Z " /><path fill="rgb(0,0,0)" stroke="rgb(0,0,0)" stroke-width="1" opacity="0.984313725490196" d="M 186.5 24 L 188 24.5 L 185.5 26 L 186.5 24 Z " /><path fill="rgb(0,0,0)" stroke="rgb(0,0,0)" stroke-width="1" opacity="0.984313725490196" d="M 157.5 26 L 159 26.5 L 157 27 L 156.5 29 L 156 27.5 L 157.5 26 Z " /><path fill="rgb(0,0,0)" stroke="rgb(0,0,0)" stroke-width="1" opacity="0.984313725490196" d="M 183.5 26 L 181.5 29 L 183.5 26 Z " /><path fill="rgb(0,0,0)" stroke="rgb(0,0,0)" stroke-width="1" opacity="0.984313725490196" d="M 258.5 26 L 261 27.5 L 259.5 27 L 258.5 26 Z " /><path fill="rgb(0,0,0)" stroke="rgb(0,0,0)" stroke-width="1" opacity="0.984313725490196" d="M 234.5 27 L 246 37.5 L 247 39.5 L 244 37.5 L 236.5 29 L 234.5 27 Z " /><path fill="rgb(0,0,0)" stroke="rgb(0,0,0)" stroke-width="1" opacity="0.984313725490196" d="M 179.5 29 L 173.5 36 L 179.5 29 Z " /><path fill="rgb(0,0,0)" stroke="rgb(0,0,0)" stroke-width="1" opacity="0.984313725490196" d="M 261.5 29 L 262.5 31 L 261.5 29 Z " /><path fill="rgb(0,0,0)" stroke="rgb(0,0,0)" stroke-width="1" opacity="0.984313725490196" d="M 387.5 30 Q 399 28.5 406.5 31 Q 415.8 34.2 421 41.5 L 427 52.5 L 428 68.5 L 421 82.5 L 295 212.5 L 293 216.5 L 293 258.5 L 294 259.5 L 294 314.5 L 295.5 316 L 387.5 316 L 399.5 319 L 411 327.5 Q 417.5 335 420 346.5 L 420 380.5 Q 417.2 395.2 407.5 403 L 393 411.5 L 387 444.5 L 385 449.5 L 368 534.5 L 366 539.5 L 362 563.5 L 360 568.5 L 354 601.5 L 344 644.5 Q 345.2 649.3 343 650.5 L 343 682.5 L 342 687.5 L 334 702 Q 327.2 708.1 315.5 710 L 134.5 710 L 133.5 709 L 104.5 709 L 103.5 708 L 99.5 709 Q 89.3 706.3 84 698.5 L 78 684.5 L 78 650.5 L 76 640.5 L 69 615.5 L 66 598.5 L 60 577.5 L 60 573.5 L 28 442.5 L 24 421.5 L 21 409.5 L 17.5 406 L 10 400.5 Q 3.1 393.4 1 381.5 L 1 346.5 Q 3.9 330.9 14.5 323 L 24.5 317 L 32.5 315 L 93 315 L 93 242.5 L 94 241.5 L 94 217.5 Q 96.3 216.3 95 211.5 Q 101.5 183.5 120.5 168 Q 134.3 155.3 155.5 150 L 166.5 148 L 178.5 148 L 179.5 147 L 192.5 147 L 193.5 146 L 204.5 146 L 205.5 145 L 243.5 143 L 255.5 140 Q 295 108 331.5 73 L 333 73 Q 331.9 70.3 334.5 71 L 342 65 Q 340.9 62.3 343.5 63 L 372.5 37 Q 378.4 31.9 387.5 30 Z M 391 49 L 376 60 L 269 155 L 258 160 L 247 162 L 234 162 L 233 163 L 222 163 L 221 164 L 172 167 L 170 167 L 148 173 L 132 184 Q 117 197 113 220 L 112 312 L 115 313 L 119 312 L 127 312 L 128 313 L 130 312 L 130 252 L 131 250 L 138 245 L 146 247 L 149 253 L 149 312 L 275 312 L 275 262 L 274 261 L 274 214 L 279 202 L 397 80 L 408 68 L 409 65 L 409 61 L 406 54 Q 402 47 391 49 Z M 36 334 L 27 338 Q 21 342 20 350 L 20 379 L 22 385 L 29 391 L 37 393 L 387 393 L 396 388 L 401 378 L 401 350 L 397 341 L 389 335 L 36 334 Z M 41 412 L 91 624 L 101 620 L 316 620 L 324 622 L 329 625 L 339 580 L 341 566 L 343 561 L 345 547 L 347 542 L 349 528 L 351 523 L 361 471 L 363 466 L 371 423 L 373 418 Q 374 412 373 412 L 41 412 Z M 105 639 L 103 640 L 97 648 L 97 683 L 100 689 L 105 691 L 316 691 L 320 689 L 324 681 L 324 649 L 321 642 L 314 639 L 105 639 Z " /><path fill="rgb(0,0,0)" stroke="rgb(0,0,0)" stroke-width="1" opacity="0.984313725490196" d="M 153.5 33 L 152 35.5 L 149.5 41 L 149 39.5 L 153.5 33 Z " /><path fill="rgb(0,0,0)" stroke="rgb(0,0,0)" stroke-width="1" opacity="0.984313725490196" d="M 264.5 34 L 265.5 36 L 264.5 34 Z " /><path fill="rgb(0,0,0)" stroke="rgb(0,0,0)" stroke-width="1" opacity="0.984313725490196" d="M 171.5 37 L 172 38.5 Q 170.5 41.5 169 38.5 L 171 38.5 L 171.5 37 Z " /><path fill="rgb(0,0,0)" stroke="rgb(0,0,0)" stroke-width="1" opacity="0.984313725490196" d="M 169.5 41 L 169 42.5 L 166.5 47 L 166 45.5 L 169.5 41 Z " /><path fill="rgb(0,0,0)" stroke="rgb(0,0,0)" stroke-width="1" opacity="0.984313725490196" d="M 247.5 41 L 250 42 L 251 46.5 L 250 46.5 L 247.5 41 Z " /><path fill="rgb(0,0,0)" stroke="rgb(0,0,0)" stroke-width="1" opacity="0.984313725490196" d="M 270.5 48 L 271 50.5 L 270 50.5 L 270.5 48 Z " /><path fill="rgb(0,0,0)" stroke="rgb(0,0,0)" stroke-width="1" opacity="0.984313725490196" d="M 252.5 51 L 254 57.5 L 253 57.5 L 252.5 51 Z " /><path fill="rgb(0,0,0)" stroke="rgb(0,0,0)" stroke-width="1" opacity="0.984313725490196" d="M 145.5 52 L 146 54.5 L 145 54.5 L 145.5 52 Z " /><path fill="rgb(0,0,0)" stroke="rgb(0,0,0)" stroke-width="1" opacity="0.984313725490196" d="M 271.5 52 L 272 54.5 L 271 54.5 L 271.5 52 Z " /><path fill="rgb(0,0,0)" stroke="rgb(0,0,0)" stroke-width="1" opacity="0.984313725490196" d="M 163.5 55 L 164 57.5 L 163 57.5 L 163.5 55 Z " /><path fill="rgb(0,0,0)" stroke="rgb(0,0,0)" stroke-width="1" opacity="0.984313725490196" d="M 144.5 58 L 145 72.5 L 144 72.5 L 144.5 58 Z " /><path fill="rgb(0,0,0)" stroke="rgb(0,0,0)" stroke-width="1" opacity="0.984313725490196" d="M 272.5 60 L 273 72.5 L 272 72.5 L 272.5 60 Z " /><path fill="rgb(0,0,0)" stroke="rgb(0,0,0)" stroke-width="1" opacity="0.984313725490196" d="M 162.5 61 L 163 69.5 L 162 69.5 L 162.5 61 Z " /><path fill="rgb(0,0,0)" stroke="rgb(0,0,0)" stroke-width="1" opacity="0.984313725490196" d="M 254.5 62 L 255 65.5 L 254 65.5 L 254.5 62 Z " /><path fill="rgb(0,0,0)" stroke="rgb(0,0,0)" stroke-width="1" opacity="0.984313725490196" d="M 163.5 73 L 166 82.5 L 165 82.5 Q 161.9 78.9 163.5 73 Z " /><path fill="rgb(0,0,0)" stroke="rgb(0,0,0)" stroke-width="1" opacity="0.984313725490196" d="M 253.5 73 L 254 75.5 L 253 75.5 L 253.5 73 Z " /><path fill="rgb(0,0,0)" stroke="rgb(0,0,0)" stroke-width="1" opacity="0.984313725490196" d="M 145.5 76 L 146 78.5 L 145 78.5 L 145.5 76 Z " /><path fill="rgb(0,0,0)" stroke="rgb(0,0,0)" stroke-width="1" opacity="0.984313725490196" d="M 271.5 76 L 272 79.5 L 271 79.5 L 271.5 76 Z " /><path fill="rgb(0,0,0)" stroke="rgb(0,0,0)" stroke-width="1" opacity="0.984313725490196" d="M 252.5 78 L 253 80.5 L 250.5 85 L 251 83.5 L 252.5 78 Z " /><path fill="rgb(0,0,0)" stroke="rgb(0,0,0)" stroke-width="1" opacity="0.984313725490196" d="M 146.5 80 L 147 82.5 L 146 82.5 L 146.5 80 Z " /><path fill="rgb(0,0,0)" stroke="rgb(0,0,0)" stroke-width="1" opacity="0.984313725490196" d="M 268.5 87 L 269 89.5 L 267.5 92 L 267 90.5 L 268.5 87 Z " /><path fill="rgb(0,0,0)" stroke="rgb(0,0,0)" stroke-width="1" opacity="0.984313725490196" d="M 248.5 88 L 248 89.5 L 246.5 92 L 247 90.5 L 248.5 88 Z " /><path fill="rgb(0,0,0)" stroke="rgb(0,0,0)" stroke-width="1" opacity="0.984313725490196" d="M 149.5 90 L 151 93.5 L 150 93.5 L 149.5 90 Z " /><path fill="rgb(0,0,0)" stroke="rgb(0,0,0)" stroke-width="1" opacity="0.984313725490196" d="M 266.5 93 L 266 94.5 L 265.5 96 L 265 94.5 L 266.5 93 Z " /><path fill="rgb(0,0,0)" stroke="rgb(0,0,0)" stroke-width="1" opacity="0.984313725490196" d="M 172.5 94 L 175.5 98 Q 177.8 97.3 177 99.5 L 173 96.5 L 172.5 94 Z " /><path fill="rgb(0,0,0)" stroke="rgb(0,0,0)" stroke-width="1" opacity="0.984313725490196" d="M 243.5 96 L 239.5 101 L 238 100.5 L 243.5 96 Z " /><path fill="rgb(0,0,0)" stroke="rgb(0,0,0)" stroke-width="1" opacity="0.984313725490196" d="M 152.5 97 L 155.5 101 L 157 101.5 L 156 102.5 L 157.5 105 L 152.5 97 Z " /><path fill="rgb(0,0,0)" stroke="rgb(0,0,0)" stroke-width="1" opacity="0.984313725490196" d="M 264.5 97 L 264 98.5 L 259.5 105 L 261 102.5 L 264.5 97 Z " /><path fill="rgb(0,0,0)" stroke="rgb(0,0,0)" stroke-width="1" opacity="0.984313725490196" d="M 178.5 100 L 180 102.5 L 179 102.5 L 178.5 100 Z " /><path fill="rgb(0,0,0)" stroke="rgb(0,0,0)" stroke-width="1" opacity="0.984313725490196" d="M 158.5 106 L 160 106 L 160 108 Q 162.7 106.9 162 109.5 L 169 115 L 168.5 117 L 158.5 106 Z " /><path fill="rgb(0,0,0)" stroke="rgb(0,0,0)" stroke-width="1" opacity="0.984313725490196" d="M 257 106 L 259 106.5 L 255 109.5 L 257 106 Z " /><path fill="rgb(0,0,0)" stroke="rgb(0,0,0)" stroke-width="1" opacity="0.984313725490196" d="M 253.5 110 L 254 111.5 L 247.5 117 L 247.5 116 L 253 111.5 L 253.5 110 Z " /><path fill="rgb(0,0,0)" stroke="rgb(0,0,0)" stroke-width="1" opacity="0.984313725490196" d="M 202.5 111 L 215 111.5 L 202.5 112 L 202.5 111 Z " /><path fill="rgb(0,0,0)" stroke="rgb(0,0,0)" stroke-width="1" opacity="0.984313725490196" d="M 170.5 117 L 172.5 118 L 174 117.5 Q 171.8 118.8 174.5 120 L 183 124.5 L 181.5 125 L 172.5 120 L 170.5 117 Z " /><path fill="rgb(0,0,0)" stroke="rgb(0,0,0)" stroke-width="1" opacity="0.984313725490196" d="M 245.5 117 L 246 119 L 234.5 125 L 234.5 124 Q 241.5 122 245.5 117 Z " /><path fill="rgb(0,0,0)" stroke="rgb(0,0,0)" stroke-width="1" opacity="0.984313725490196" d="M 184.5 125 L 188 126.5 L 186.5 127 L 184.5 125 Z " /><path fill="rgb(0,0,0)" stroke="rgb(0,0,0)" stroke-width="1" opacity="0.984313725490196" d="M 230.5 125 L 231 127 L 226.5 128 L 226.5 127 L 230.5 125 Z " /><path fill="rgb(0,0,0)" stroke="rgb(0,0,0)" stroke-width="1" opacity="0.984313725490196" d="M 197.5 128 L 203 129.5 L 197 130 L 197.5 128 Z " /><path fill="rgb(0,0,0)" stroke="rgb(0,0,0)" stroke-width="1" opacity="0.984313725490196" d="M 221.5 128 L 224 128.5 L 221.5 129 L 221.5 128 Z " /><path fill="rgb(0,0,0)" stroke="rgb(0,0,0)" stroke-width="1" opacity="0.984313725490196" d="M 212.5 129 L 220 129.5 L 212.5 130 L 212.5 129 Z " /><path fill="rgb(0,0,0)" stroke="rgb(0,0,0)" stroke-width="1" opacity="0" d="M 0 0 L 201 0.5 L 195.5 2 L 194 1.5 Q 194.8 3.8 192.5 3 L 190.5 2 L 190.5 4 L 187 3 L 186.5 5 L 185 4.5 L 184.5 6 L 182.5 5 L 182.5 7 L 180.5 6 L 175 9.5 L 174.5 11 L 172.5 11 L 171 11.5 L 171.5 13 Q 170.3 10.8 169 13.5 L 168.5 15 L 167.5 14 L 157 24.5 L 155 27.5 L 155.5 29 L 153 30.5 L 153.5 32 L 151 33.5 L 147 43.5 L 147.5 45 Q 144.9 44.2 146 47.5 L 145 50.5 L 145.5 52 Q 142.5 51.5 144 58.5 L 143 59.5 L 143 71.5 L 144 72.5 L 144 79 L 146 79.5 L 145 83 L 147 83.5 L 146 86.5 L 147 89 L 149 89.5 L 148 91.5 Q 154.8 106.8 166.5 117 L 170 118 Q 168.9 120.7 171.5 120 Q 177 125.5 185.5 128 L 197.5 131 L 207.5 131 L 208.5 132 L 210.5 131 L 213.5 132 L 231.5 128 L 250 118 L 251.5 115 L 254.5 113 L 258 108 Q 260.7 109.1 260 106.5 Q 267.1 98.6 271 87.5 L 274 73.5 L 274 71.5 L 274 59.5 L 273 58.5 L 273 52 L 271 51.5 L 272 48.5 L 271 45 L 269 44.5 L 270 42.5 L 265.5 33 L 264 33.5 L 264.5 32 L 263 31.5 Q 265.3 30.3 262.5 29 L 261 28.5 Q 263.5 27 260 25.5 L 258.5 23 L 257 23.5 L 258 22.5 L 249.5 14 L 248 14.5 L 246.5 12 L 245 12.5 L 245.5 11 L 243.5 10 L 242 10.5 L 241.5 9 Q 240.3 11.3 239 8.5 L 238.5 7 L 236.5 8 L 236.5 6 L 234.5 7 L 234.5 5 L 232.5 6 L 231.5 4 L 229.5 5 L 217.5 1 L 202 0.5 L 429 0 L 428.5 59 L 427 54.5 L 428 52 L 426 51.5 L 426.5 50 L 425 49.5 L 425.5 48 L 424 47.5 L 424.5 46 L 423 45.5 L 423.5 44 L 421 42.5 Q 423.5 41 420 39.5 L 419.5 38 L 418 38.5 L 418.5 37 L 414.5 34 L 413 34.5 Q 413.8 32.3 411.5 33 Q 409.7 29.8 404.5 30 L 403 30.5 L 402.5 29 L 394.5 29 L 392.5 29 L 383.5 30 L 373 35 Q 374.1 37.7 371.5 37 L 361 45.5 L 359.5 48 L 346 58 Q 347.1 60.7 344.5 60 L 335 68.5 Q 335.8 70.8 333.5 70 L 319 82 Q 320.1 84.7 317.5 84 L 316.5 87 L 314.5 87 L 309 91 Q 310 94 307 93 L 307 95.5 L 305.5 95 L 299.5 101 L 295 104.5 Q 295.8 106.8 293.5 106 L 288 110.5 Q 288.8 112.8 286.5 112 L 271 125.5 L 271.5 127 L 270.5 126 L 265.5 131 Q 263.3 130.3 264 132.5 Q 262 136.2 260 134.5 L 257.5 138 L 251.5 141 L 249.5 140 L 243.5 142 L 241.5 141 L 232.5 143 L 229.5 142 L 228.5 143 L 217.5 144 L 215.5 144 L 206.5 144 L 205.5 145 L 203.5 144 L 194.5 146 L 190.5 145 L 189.5 146 L 177.5 146 L 176.5 147 L 174.5 147 L 165.5 147 L 155.5 149 L 140.5 154 Q 124.6 160.6 114 172.5 Q 103.2 184.2 97 200.5 L 93 215.5 L 92 227.5 L 93 231.5 L 92 232.5 L 92 240.5 L 93 245.5 L 92 247.5 L 93 248.5 L 93 264.5 L 92 265.5 L 92 289.5 L 93 290.5 L 93 313.5 L 92 313.5 L 91.5 312 L 89.5 315 L 87.5 315 L 85.5 314 L 33.5 314 Q 18.4 316.4 10 325.5 Q 1.9 333.9 0.5 349 L 0 0 Z " /><path fill="rgb(0,0,0)" stroke="rgb(0,0,0)" stroke-width="1" opacity="0" d="M 199.5 20 Q 201 22.5 206.5 21 L 210.5 20 L 215.5 21 Q 217 18.5 218.5 22 L 221.5 21 L 222 23 L 224.5 22 L 225.5 24 L 227 23.5 Q 226.3 25.8 228.5 25 L 231 25.5 L 231.5 27 L 233 26.5 L 232.5 28 L 235.5 30 L 237 29.5 Q 236.5 33.5 239.5 34 L 244 36 L 244 38.5 L 248 43.5 L 252 53.5 L 253 72.5 L 251 79.5 L 251.5 81 Q 248.9 80.2 250 83.5 L 249.5 86 L 248 86.5 L 248.5 88 L 246 89.5 L 235.5 103 Q 234.3 100.8 233 103.5 L 232.5 105 L 230.5 105 L 228 106.5 L 227.5 108 L 225.5 107 L 222 108.5 L 222.5 110 L 219 109 L 218.5 111 Q 217.2 108.7 212.5 110 Q 211 112.5 205.5 111 Q 204.3 108.7 199.5 110 L 198 110.5 Q 198.8 107.9 195.5 109 L 194 109.5 L 194.5 108 L 192.5 109 L 192 107 L 189.5 108 L 189.5 106 L 187.5 107 L 187.5 105 L 185.5 106 L 185.5 104 L 183.5 103 L 182 103.5 L 182.5 102 L 172 93.5 Q 174.5 92 171 90.5 L 168.5 86 L 167 85.5 L 168 83.5 L 164 72.5 L 164 60.5 L 165 57.5 L 166 54.5 L 166 52.5 Q 168.5 40.5 176.5 34 L 179.5 32 L 186 27 L 186.5 25 L 188.5 25 Q 190.8 25.8 190 23.5 L 192 23.5 L 192.5 22 L 195 23 L 195.5 21 L 199 22 L 199.5 20 Z " /><path fill="rgb(0,0,0)" stroke="rgb(0,0,0)" stroke-width="1" opacity="0" d="M 395.5 49 L 399.5 51 L 400.5 50 L 405 52.5 Q 402.5 54 406 55.5 L 408 59.5 L 407 61.5 L 407 63.5 L 408 65.5 L 396 80 Q 393.3 78.9 394 81.5 L 391 83 Q 392.1 85.7 389.5 85 L 388 88 L 385 89.5 L 383 92.5 L 380 94 Q 381.1 96.7 378.5 96 L 371 106 L 365 110.5 Q 365.8 112.8 363.5 112 L 362 115 Q 359 113.8 360 117.5 L 358 117.5 L 356.5 120 L 351.5 124 L 350 127 L 348 127 Q 349.1 129.7 346.5 129 L 338 140 L 331 145.5 L 329.5 148 L 328 148.5 L 328.5 150 Q 326.8 147.2 325 151.5 L 325.5 153 Q 324.3 150.8 323 153.5 L 323.5 155 Q 322.3 152.8 321 155.5 Q 323.3 156.8 320.5 158 Q 319.3 155.8 318 158.5 L 316.5 161 L 314 162.5 L 306 171.5 L 306 173.5 L 295.5 184 L 294 183.5 L 284 196 L 280 198.5 L 273 212.5 L 273 214.5 L 273 280.5 L 274 282.5 L 273 286.5 L 273 288.5 L 273.5 298 L 274.5 295 L 275 302.5 Q 272.3 304.3 274 310.5 L 274.5 312 L 273.5 311 L 163.5 311 L 162.5 312 L 151.5 312 L 149 305.5 L 149 284.5 L 150 283.5 L 150 253.5 Q 146.9 251.7 148.5 250 L 147 249.5 Q 149.8 247.8 145.5 246 L 144 246.5 L 143.5 245 L 141 246 Q 142.2 242.3 137 244 L 136.5 246 L 134.5 245 L 134.5 247 L 133.5 246 L 130 249.5 L 130.5 251 L 129 251.5 L 129 311.5 Q 127.7 314.3 126.5 312 L 114.5 313 L 113 311.5 L 113 265.5 L 114 264.5 L 114 225.5 L 115 224.5 L 115 222.5 L 116 211.5 L 118 208.5 L 118 206.5 L 120 200 L 122 199.5 L 121.5 198 Q 123.8 198.8 123 196.5 L 130 186 L 136 183 Q 134.9 180.3 137.5 181 L 140 180 Q 138.8 177 142.5 178 L 150.5 173 L 164.5 169 L 171.5 169 L 180.5 167 L 184.5 168 L 185.5 167 L 206.5 166 L 208.5 165 L 210.5 165 L 219.5 165 L 220.5 164 L 222.5 165 L 224.5 164 L 226.5 164 L 250.5 163 L 255.5 162 L 260.5 159 Q 262 161.5 263.5 158 Q 269.3 157.3 272 153.5 Q 271.3 151.3 273.5 152 L 278 148.5 L 277.5 147 L 278.5 148 L 281.5 145 L 284 143.5 Q 281.8 142.3 284.5 141 L 286 141.5 Q 285.3 139.3 287.5 140 L 290 139 Q 288.9 136.3 291.5 137 L 291.5 135 L 292.5 136 L 296.5 132 L 300 129.5 L 299.5 128 L 301.5 128 L 319 112.5 Q 316.8 111.2 319.5 110 L 321 110.5 Q 320.3 108.3 322.5 109 L 327 106 Q 326 103 329 104 L 329 101.5 L 332 100.5 Q 331.3 98.3 333.5 99 L 339 94.5 Q 336.3 92.7 340.5 91 L 341.5 92 L 345.5 88 L 349 85.5 L 349.5 83 Q 351 85.5 352.5 82 L 356 79.5 L 357.5 77 L 365 72 Q 363.9 69.3 366.5 70 L 366.5 68 Q 367.8 70.3 369 67.5 L 369 66 L 372 66 Q 370.9 63.3 373.5 64 L 385 55 L 385 53 Q 387.7 54.1 387 51.5 L 389 51.5 L 389.5 50 L 391.5 51 L 395.5 49 Z " /><path fill="rgb(0,0,0)" stroke="rgb(0,0,0)" stroke-width="1" opacity="0" d="M 428.5 60 L 429 66.5 L 428 66.5 L 428.5 60 Z " /><path fill="rgb(0,0,0)" stroke="rgb(0,0,0)" stroke-width="1" opacity="0" d="M 428.5 68 L 429 711 L 307 710.5 L 319.5 709 L 321 709.5 Q 320.2 706.9 323.5 708 L 326.5 706 L 328 706.5 L 328.5 705 L 330 705.5 L 332.5 702 Q 333.8 704.3 335 701.5 Q 332.8 700.3 335.5 699 L 337 699.5 L 339 696.5 L 338.5 695 L 340 694.5 L 339.5 693 L 341 693.5 L 340 691.5 L 342 691 L 341 688.5 L 343 688 L 342 683.5 L 344 683 L 343 680.5 L 343 667.5 L 344 666.5 L 344 651.5 L 344 649.5 L 346 640.5 L 345.5 639 L 347 639.5 L 346 635.5 L 348 635 L 347 630.5 L 349 630 L 348 625.5 L 350 622.5 L 349 620 Q 352 621.3 351 617.5 L 350 615 Q 353 616.3 352 612.5 L 351.5 611 Q 354.5 611.9 353 607.5 L 352.5 606 L 354 606.5 L 355 598.5 L 354.5 597 Q 357.5 597.9 356 593.5 L 355.5 592 Q 358.9 592.9 357 587.5 L 364 555.5 L 363.5 554 Q 366.5 554.9 365 550.5 L 364.5 549 L 366 549.5 L 365 544.5 L 367 544.5 L 368 536.5 L 367.5 535 Q 370.5 535.9 369 531.5 L 372 517.5 L 371.5 516 Q 374.5 516.9 373 512.5 L 372.5 511 L 374 511.5 L 373 506.5 L 375 506 L 376 498.5 Q 373.5 497 377 495.5 L 381 474.5 L 380.5 473 Q 383.5 473.9 382 469.5 L 381.5 468 Q 384.5 468.9 383 464.5 L 382.5 463 Q 385.9 463.9 384 458.5 L 385 455.5 L 384.5 454 L 386 454.5 L 385 449.5 L 387 449 L 388 441.5 L 387.5 440 Q 390.9 440.9 389 435.5 L 391 430.5 L 392 421.5 L 391.5 420 Q 394.5 420.9 393 416.5 L 392.5 415 L 394 415 L 394 411 Q 396.7 412.1 396 409.5 L 398 409.5 L 398.5 408 L 400 408.5 L 400.5 407 L 402 407.5 L 402.5 406 Q 403.8 408.3 405 405.5 L 405.5 404 L 406.5 405 L 413 398.5 L 415 395.5 L 414.5 394 L 416 394.5 L 418 389.5 L 417.5 388 Q 419.8 388.8 419 386.5 L 418.5 385 Q 421.1 385.8 420 382.5 Q 417.5 381 421 379.5 Q 418.5 376 420 368.5 L 421 367.5 L 421 348.5 L 419 345.5 L 420 342 L 418 341.5 L 419 339 L 417 338.5 L 417.5 337 L 416 336.5 L 416.5 335 L 415 334.5 L 415.5 333 L 414 332.5 Q 416.5 331 413 329.5 L 412.5 328 L 411 328.5 L 412 327.5 L 408.5 324 Q 407.3 326.3 406 323.5 L 406.5 322 L 404.5 321 L 403 321.5 L 403.5 320 L 398.5 318 L 397 318.5 Q 397.8 316.3 395.5 317 L 394 317.5 Q 394.8 314.9 391.5 316 L 388 317 L 387.5 315 L 377.5 315 L 376.5 316 L 295 316 L 294 304.5 L 295 303.5 L 295 250.5 L 294 249.5 L 294 240.5 L 294 238.5 L 294 217.5 L 298.5 210 L 301.5 208 L 304 204 Q 306.7 205.1 306 202.5 L 312 196.5 L 311 195.5 L 315.5 191 L 318 190.5 L 317 189.5 L 321.5 185 L 322.5 186 L 326 182.5 L 327.5 180 Q 329.8 180.8 329 178.5 L 338 169.5 L 337 168.5 L 353.5 152 L 354.5 153 L 362 145.5 L 373 132 L 375 131.5 L 374 130.5 L 387.5 117 L 393 114 L 411.5 92 L 422 82.5 Q 419.8 81.3 422.5 80 L 424 79.5 Q 421.8 78.3 424.5 77 L 426 76.5 L 425.5 75 L 427 74.5 L 426 72.5 L 428 72.5 L 427 69.5 L 428.5 68 Z M 302 314 L 302 315 L 320 315 L 302 314 Z " /><path fill="rgb(0,0,0)" stroke="rgb(0,0,0)" stroke-width="1" opacity="0" d="M 36.5 334 L 38.5 334 L 79.5 334 L 82.5 335 L 83.5 334 L 207.5 334 L 208.5 335 L 387.5 336 L 389 335.5 Q 388.3 337.8 390.5 337 L 392 336.5 L 393.5 339 Q 395.3 336.3 397 340.5 Q 394.8 341.8 397.5 343 L 399 343.5 L 398 345.5 L 400 349.5 L 400 376.5 L 399 381.5 L 391.5 390 L 386.5 392 L 341.5 392 L 340.5 393 L 337.5 392 Q 336.3 394.3 331.5 393 L 327.5 392 L 325.5 392 L 243.5 392 L 241.5 393 L 240.5 392 L 217.5 392 Q 215.8 394.8 209.5 393 L 208.5 392 L 176.5 392 L 175.5 391 L 56.5 391 L 55.5 392 L 40.5 392 L 28 390 Q 29.1 387.3 26.5 388 Q 21.9 385.1 21 378.5 L 21 376.5 L 21 352.5 L 23 344.5 L 22.5 343 L 25 341.5 L 24.5 340 Q 25.8 342.3 27 339.5 L 26.5 338 L 28.5 338 L 30 337.5 L 29.5 336 L 31.5 337 L 34.5 335 L 36 335.5 L 36.5 334 Z " /><path fill="rgb(0,0,0)" stroke="rgb(0,0,0)" stroke-width="1" opacity="0" d="M 0.5 378 L 2 383.5 L 1 386 Q 3.7 384.9 3 387.5 L 3 389.5 L 6 398 L 9 398.5 L 8 399.5 L 12.5 404 Q 15.8 402.9 15 405.5 L 18 406.5 Q 17.3 408.8 19.5 408 Q 22.3 409.3 20 410.5 L 22 413.5 L 21 415.5 L 27 438.5 L 27 440.5 L 28 442.5 L 28 444.5 L 29 446.5 L 29 448.5 L 31 455.5 L 31 457.5 L 32 459.5 L 32 461.5 L 33 463.5 L 33 465.5 L 34 472.5 L 36 476.5 L 36 478.5 L 41 496.5 L 41 498.5 L 46 518.5 L 47 527.5 L 49 530.5 Q 48.4 536.6 51 539.5 L 51 541.5 L 52 543.5 L 52 545.5 L 62 586.5 L 62 591.5 L 64 594.5 L 64 596.5 L 74 640 L 76 640.5 L 75 643.5 Q 78.5 645 76 646.5 L 77 648.5 L 77 683.5 L 79 686.5 L 78 689 L 80 689.5 L 79 692 L 81 692.5 L 80.5 694 L 82 694.5 L 82 696.5 L 82.5 698 L 84 697.5 Q 81.7 698.8 84.5 700 L 88 702.5 L 90.5 706 Q 92 703.5 93.5 707 L 99.5 709 L 211 710.5 L 131.5 711 L 130.5 710 L 110.5 710 L 109.5 711 L 0 711 L 0.5 378 Z " /><path fill="rgb(0,0,0)" stroke="rgb(0,0,0)" stroke-width="1" opacity="0" d="M 42.5 412 L 46.5 413 L 48.5 413 L 346.5 413 L 347.5 412 L 356.5 412 L 357.5 413 L 373 413.5 Q 370.3 416.8 371 423.5 L 368 430.5 L 363 460.5 L 361 464.5 L 361 466.5 L 357 483.5 L 357 485.5 L 354 498.5 L 354 503.5 L 348 526.5 L 348 528.5 L 341 565.5 L 338 574.5 L 338 576.5 L 337 578.5 L 337 580.5 L 336 583.5 L 336 585.5 L 336 589.5 L 333 597.5 L 334 599.5 L 332 602.5 L 332 604.5 L 328 622.5 L 328.5 624 L 322.5 621 L 321 621.5 Q 321.6 618.8 315.5 620 L 313.5 620 L 311.5 619 L 207.5 619 L 205.5 619 L 187.5 620 L 182.5 619 L 181.5 620 L 166.5 620 L 164.5 619 L 161.5 620 L 160.5 619 L 150.5 619 L 149.5 620 L 112.5 620 L 110.5 619 L 108.5 619 L 105.5 620 L 101.5 619 L 97 620.5 L 97.5 622 L 95.5 622 L 92.5 623 L 89 612.5 L 87 599.5 L 85 595.5 L 83 582.5 L 81 578.5 L 81 573.5 L 75 553.5 L 75 551.5 L 65 507.5 L 63 503.5 L 62 494 L 60 493.5 L 61 489.5 L 55 469.5 L 55 467.5 L 53 460.5 L 53 455.5 L 51 451.5 L 51 446.5 L 48 438.5 L 48 433.5 L 42.5 412 Z " /><path fill="rgb(0,0,0)" stroke="rgb(0,0,0)" stroke-width="1" opacity="0" d="M 107.5 639 L 148.5 639 L 153.5 640 Q 154.8 637.8 159.5 639 L 160.5 640 L 178.5 640 L 179.5 639 L 196.5 639 L 197.5 640 L 235.5 640 Q 237.3 637.3 243.5 639 L 244.5 640 L 271.5 640 L 272.5 639 L 311.5 639 L 315.5 641 L 317.5 640 L 319.5 643 L 321 642.5 Q 318.8 643.8 321.5 645 L 323 645.5 L 323 647.5 Q 324.6 659.6 322 667.5 L 323 669.5 L 322 670.5 L 322 679.5 L 322 681.5 Q 322.8 685.8 320 686.5 Q 322.3 687.8 319.5 689 L 317.5 689 Q 315.3 688.3 316 690.5 L 314.5 690 L 109.5 691 L 107.5 691 L 98 685.5 L 99 683.5 L 98 682.5 L 98 648.5 L 99 645.5 L 102 640 L 107.5 639 Z " /><path fill="rgb(0,0,0)" stroke="rgb(0,0,0)" stroke-width="1" opacity="0" d="M 229.5 710 L 266 710.5 L 229.5 711 L 229.5 710 Z " /><path fill="rgb(0,0,0)" stroke="rgb(0,0,0)" stroke-width="1" opacity="0" d="M 288.5 710 L 297 710.5 L 288.5 711 L 288.5 710 Z " /></svg>